<svg width="80" height="81" viewBox="0 0 80 81" fill="none" xmlns="http://www.w3.org/2000/svg">
<path d="M25.7145 74.7314C38.3383 74.7314 48.5717 64.4979 48.5717 51.8742C48.5717 39.2506 38.3383 29.0171 25.7145 29.0171C13.0909 29.0171 2.85742 39.2506 2.85742 51.8742C2.85742 64.4979 13.0909 74.7314 25.7145 74.7314Z" stroke="#68D1DF" stroke-width="1.5" stroke-linecap="round" stroke-linejoin="round"/>
<path d="M54.2868 74.7314C66.9105 74.7314 77.144 64.4979 77.144 51.8742C77.144 39.2506 66.9105 29.0171 54.2868 29.0171C41.6632 29.0171 31.4297 39.2506 31.4297 51.8742C31.4297 64.4979 41.6632 74.7314 54.2868 74.7314Z" stroke="#68D1DF" stroke-width="1.5" stroke-linecap="round" stroke-linejoin="round"/>
<path d="M39.9998 51.8744C52.6234 51.8744 62.8568 41.6409 62.8568 29.0173C62.8568 16.3936 52.6234 6.16016 39.9998 6.16016C27.376 6.16016 17.1426 16.3936 17.1426 29.0173C17.1426 41.6409 27.376 51.8744 39.9998 51.8744Z" stroke="#68D1DF" stroke-width="1.5" stroke-linecap="round" stroke-linejoin="round"/>
</svg>
