<svg width="21" height="21" viewBox="0 0 21 21" fill="none" xmlns="http://www.w3.org/2000/svg">
<path fill-rule="evenodd" clip-rule="evenodd" d="M2.65893 1.12557C2.88252 0.902311 3.15102 0.729118 3.44661 0.617472C3.7422 0.505825 4.05815 0.458274 4.37351 0.477969C4.68888 0.497664 4.99645 0.584156 5.27586 0.731712C5.55527 0.879269 5.80012 1.08452 5.9942 1.33387L8.28801 4.28067C8.70843 4.82121 8.85667 5.52533 8.69054 6.18983L7.99154 8.9884C7.95565 9.13336 7.95773 9.28512 7.99757 9.42905C8.03741 9.57298 8.11368 9.7042 8.219 9.81008L11.3588 12.9498C11.4648 13.0554 11.5962 13.1318 11.7404 13.1716C11.8846 13.2115 12.0366 13.2134 12.1817 13.1773L14.979 12.4783C15.307 12.3968 15.6491 12.3907 15.9798 12.4604C16.3105 12.5301 16.621 12.6738 16.8882 12.8808L19.835 15.1734C20.8943 15.9976 20.9915 17.563 20.0433 18.5099L18.7219 19.8312C17.7763 20.7769 16.363 21.1922 15.0455 20.7283C11.6727 19.5432 8.61072 17.6125 6.08749 15.0801C3.5552 12.5572 1.62454 9.49568 0.43924 6.12338C-0.0233538 4.80716 0.391959 3.39254 1.33759 2.4469L2.65893 1.12557Z" fill="white"/>
</svg>
