<svg width="16" height="17" viewBox="0 0 16 17" fill="none" xmlns="http://www.w3.org/2000/svg">
<mask id="mask0_60_431" style="mask-type:alpha" maskUnits="userSpaceOnUse" x="0" y="0" width="16" height="17">
<g clip-path="url(#clip0_60_431)">
<g clip-path="url(#clip1_60_431)">
<path d="M14.638 10.3603L9.8713 8.49746L14.6794 6.63461C14.9281 6.55182 15.0939 6.26204 15.0525 6.01366C14.9696 5.4755 14.7209 4.97874 14.4307 4.52338C14.182 4.02662 13.8504 3.61265 13.436 3.24008C13.2287 3.0745 12.9386 3.0745 12.7313 3.24008L8.71072 6.46902L9.53971 1.37724C9.62261 1.08746 9.45681 0.83908 9.20811 0.756287C8.71072 0.549304 8.13043 0.466511 7.59158 0.507908C7.05274 0.466511 6.47245 0.549304 5.97506 0.756287C5.72636 0.83908 5.56057 1.12886 5.64347 1.37724L6.47245 6.46902L2.45186 3.24008C2.24461 3.0331 1.95447 3.0331 1.74722 3.24008C1.33273 3.57126 1.00113 4.02662 0.752437 4.52338C0.420841 4.97874 0.213593 5.4755 0.0892453 6.01366C0.0477959 6.30344 0.213594 6.55182 0.46229 6.63461L5.18752 8.49746L0.379391 10.3603C0.130695 10.4431 -0.0351017 10.7329 0.00634775 10.9813C0.0892465 11.5194 0.296494 12.0162 0.628089 12.4715C0.876785 12.9683 1.20838 13.3823 1.62287 13.7548C1.83012 13.9204 2.12027 13.9204 2.32751 13.7548L6.3481 10.5259L5.51912 15.6177C5.43622 15.9075 5.60202 16.1558 5.85071 16.28C6.38955 16.4456 6.9284 16.5284 7.46724 16.487C8.00608 16.5284 8.58637 16.4456 9.08377 16.28C9.33246 16.1972 9.49826 15.9075 9.41536 15.6177L8.58637 10.5259L12.607 13.7548C12.8142 13.9204 13.1044 13.9204 13.3531 13.7548C13.7675 13.4237 14.0991 13.0097 14.3478 12.5129C14.6794 12.0576 14.8867 11.5608 15.011 11.0227C15.0525 10.6915 14.9281 10.4431 14.638 10.3603Z" fill="#BFF747"/>
</g>
</g>
</mask>
<g mask="url(#mask0_60_431)">
<rect y="0.5" width="16" height="16" fill="#68D1DF"/>
</g>
<defs>
<clipPath id="clip0_60_431">
<rect width="16" height="16" fill="white" transform="translate(0 0.5)"/>
</clipPath>
<clipPath id="clip1_60_431">
<rect width="16" height="16" fill="white" transform="translate(0 0.5)"/>
</clipPath>
</defs>
</svg>
