<svg width="42" height="46" viewBox="0 0 42 46" fill="none" xmlns="http://www.w3.org/2000/svg">
<path d="M39.7532 10.1561L23.1418 0.551351C22.5158 0.190459 21.8059 0.000488281 21.0833 0.000488281C20.3607 0.000488281 19.6508 0.190459 19.0248 0.551351L2.41344 10.1561C1.79801 10.5123 1.2867 11.0236 0.930491 11.6391C0.574281 12.2545 0.385611 12.9526 0.383301 13.6636V32.3366C0.385611 33.0476 0.574281 33.7457 0.930491 34.3611C1.2867 34.9766 1.79801 35.4879 2.41344 35.8441L19.0248 45.4489C19.6508 45.8098 20.3607 45.9997 21.0833 45.9997C21.8059 45.9997 22.5158 45.8098 23.1418 45.4489L39.7532 35.8441C40.3686 35.4879 40.8799 34.9766 41.2361 34.3611C41.5923 33.7457 41.781 33.0476 41.7833 32.3366V13.6636C41.781 12.9526 41.5923 12.2545 41.2361 11.6391C40.8799 11.0236 40.3686 10.5123 39.7532 10.1561ZM3.18164 11.4832L19.793 1.87922C20.1855 1.65339 20.6304 1.53455 21.0833 1.53455C21.5361 1.53455 21.9811 1.65339 22.3736 1.87922L38.985 11.4832C39.2744 11.651 39.5279 11.8743 39.7309 12.1403L29.5297 18.0436L22.323 13.4367C21.953 13.2012 21.5234 13.0761 21.0848 13.0761C20.6462 13.0761 20.2167 13.2012 19.8467 13.4367L12.64 18.0436L2.43874 12.1403C2.64082 11.8746 2.89326 11.6513 3.18164 11.4832ZM21.0833 31.5484L14.0683 27.3402L20.667 23.1174C20.7909 23.0375 20.9351 22.995 21.0825 22.995C21.2299 22.995 21.3742 23.0375 21.4981 23.1174L28.0983 27.341L21.0833 31.5484ZM28.75 25.9364L22.323 21.824C21.9518 21.5895 21.5216 21.465 21.0825 21.465C20.6434 21.465 20.2133 21.5895 19.8421 21.824L13.4166 25.9364V19.3684L20.6701 14.7324C20.7934 14.6534 20.9368 14.6115 21.0833 14.6115C21.2298 14.6115 21.3732 14.6534 21.4965 14.7324L28.75 19.3684V25.9364ZM3.18164 34.517C2.79859 34.2958 2.48021 33.9781 2.25824 33.5955C2.03628 33.213 1.9185 32.7789 1.91664 32.3366V13.6636C1.91664 13.6468 1.91664 13.6299 1.91664 13.613L11.8833 19.3822V26.5122C11.8845 26.909 11.9878 27.2989 12.1833 27.6442C12.3788 27.9896 12.6599 28.2788 12.9996 28.4841L20.3166 32.8771V44.338C20.1346 44.2855 19.959 44.2129 19.793 44.1218L3.18164 34.517ZM40.25 32.3366C40.2481 32.7789 40.1303 33.213 39.9084 33.5955C39.6864 33.9781 39.368 34.2958 38.985 34.517L22.3736 44.121C22.2076 44.2122 22.0319 44.2847 21.85 44.3372V32.8771L29.167 28.4871C29.5067 28.2819 29.7878 27.9927 29.9833 27.6473C30.1788 27.302 30.2821 26.9121 30.2833 26.5153V19.3853L40.25 13.6161C40.25 13.633 40.25 13.6498 40.25 13.6667V32.3366Z" fill="#68D1DF"/>
</svg>
