<svg width="42" height="46" viewBox="0 0 42 46" fill="none" xmlns="http://www.w3.org/2000/svg">
<path d="M39.7532 10.156L23.1418 0.551229C22.5158 0.190337 21.8059 0.000366211 21.0833 0.000366211C20.3607 0.000366211 19.6508 0.190337 19.0248 0.551229L2.41344 10.156C1.79801 10.5122 1.2867 11.0235 0.930491 11.639C0.574281 12.2544 0.385611 12.9525 0.383301 13.6635V32.3365C0.385611 33.0475 0.574281 33.7456 0.930491 34.361C1.2867 34.9765 1.79801 35.4878 2.41344 35.844L19.0248 45.4488C19.6508 45.8097 20.3607 45.9996 21.0833 45.9996C21.8059 45.9996 22.5158 45.8097 23.1418 45.4488L39.7532 35.844C40.3686 35.4878 40.8799 34.9765 41.2361 34.361C41.5923 33.7456 41.781 33.0475 41.7833 32.3365V13.6635C41.781 12.9525 41.5923 12.2544 41.2361 11.639C40.8799 11.0235 40.3686 10.5122 39.7532 10.156ZM3.18164 11.4831L19.793 1.8791C20.1855 1.65327 20.6304 1.53443 21.0833 1.53443C21.5361 1.53443 21.9811 1.65327 22.3736 1.8791L38.985 11.4831C39.2744 11.6509 39.5279 11.8742 39.7309 12.1402L29.5297 18.0435L22.323 13.4366C21.953 13.2011 21.5234 13.076 21.0848 13.076C20.6462 13.076 20.2167 13.2011 19.8467 13.4366L12.64 18.0435L2.43874 12.1402C2.64082 11.8745 2.89326 11.6512 3.18164 11.4831ZM21.0833 31.5483L14.0683 27.3401L20.667 23.1173C20.7909 23.0374 20.9351 22.9949 21.0825 22.9949C21.2299 22.9949 21.3742 23.0374 21.4981 23.1173L28.0983 27.3409L21.0833 31.5483ZM28.75 25.9363L22.323 21.8239C21.9518 21.5894 21.5216 21.4649 21.0825 21.4649C20.6434 21.4649 20.2133 21.5894 19.8421 21.8239L13.4166 25.9363V19.3683L20.6701 14.7323C20.7934 14.6533 20.9368 14.6114 21.0833 14.6114C21.2298 14.6114 21.3732 14.6533 21.4965 14.7323L28.75 19.3683V25.9363ZM3.18164 34.5169C2.79859 34.2957 2.48021 33.978 2.25824 33.5954C2.03628 33.2129 1.9185 32.7788 1.91664 32.3365V13.6635C1.91664 13.6467 1.91664 13.6298 1.91664 13.6129L11.8833 19.3821V26.5121C11.8845 26.9089 11.9878 27.2988 12.1833 27.6441C12.3788 27.9895 12.6599 28.2787 12.9996 28.484L20.3166 32.877V44.3379C20.1346 44.2854 19.959 44.2128 19.793 44.1217L3.18164 34.5169ZM40.25 32.3365C40.2481 32.7788 40.1303 33.2129 39.9084 33.5954C39.6864 33.978 39.368 34.2957 38.985 34.5169L22.3736 44.1209C22.2076 44.2121 22.0319 44.2846 21.85 44.3371V32.877L29.167 28.487C29.5067 28.2818 29.7878 27.9926 29.9833 27.6472C30.1788 27.3019 30.2821 26.912 30.2833 26.5152V19.3852L40.25 13.616C40.25 13.6329 40.25 13.6497 40.25 13.6666V32.3365Z" fill="#68D1DF"/>
</svg>
