<svg width="42" height="46" viewBox="0 0 42 46" fill="none" xmlns="http://www.w3.org/2000/svg">
<path d="M39.5535 10.156L22.9421 0.551229C22.3161 0.190337 21.6062 0.000366211 20.8836 0.000366211C20.161 0.000366211 19.4511 0.190337 18.8251 0.551229L2.21373 10.156C1.5983 10.5122 1.08699 11.0235 0.730784 11.639C0.374574 12.2544 0.185904 12.9525 0.183594 13.6635V32.3365C0.185904 33.0475 0.374574 33.7456 0.730784 34.361C1.08699 34.9765 1.5983 35.4878 2.21373 35.844L18.8251 45.4488C19.4511 45.8097 20.161 45.9996 20.8836 45.9996C21.6062 45.9996 22.3161 45.8097 22.9421 45.4488L39.5535 35.844C40.1689 35.4878 40.6802 34.9765 41.0364 34.361C41.3926 33.7456 41.5813 33.0475 41.5836 32.3365V13.6635C41.5813 12.9525 41.3926 12.2544 41.0364 11.639C40.6802 11.0235 40.1689 10.5122 39.5535 10.156ZM2.98193 11.4831L19.5933 1.8791C19.9858 1.65327 20.4307 1.53443 20.8836 1.53443C21.3364 1.53443 21.7814 1.65327 22.1739 1.8791L38.7853 11.4831C39.0747 11.6509 39.3282 11.8742 39.5312 12.1402L29.33 18.0435L22.1233 13.4366C21.7533 13.2011 21.3237 13.076 20.8851 13.076C20.4465 13.076 20.017 13.2011 19.647 13.4366L12.4403 18.0435L2.23903 12.1402C2.44111 11.8745 2.69355 11.6512 2.98193 11.4831ZM20.8836 31.5483L13.8686 27.3401L20.4673 23.1173C20.5912 23.0374 20.7354 22.9949 20.8828 22.9949C21.0302 22.9949 21.1745 23.0374 21.2984 23.1173L27.8986 27.3409L20.8836 31.5483ZM28.5503 25.9363L22.1233 21.8239C21.7521 21.5894 21.3219 21.4649 20.8828 21.4649C20.4437 21.4649 20.0136 21.5894 19.6424 21.8239L13.2169 25.9363V19.3683L20.4704 14.7323C20.5937 14.6533 20.7371 14.6114 20.8836 14.6114C21.0301 14.6114 21.1735 14.6533 21.2968 14.7323L28.5503 19.3683V25.9363ZM2.98193 34.5169C2.59888 34.2957 2.2805 33.978 2.05853 33.5954C1.83657 33.2129 1.71879 32.7788 1.71693 32.3365V13.6635C1.71693 13.6467 1.71693 13.6298 1.71693 13.6129L11.6836 19.3821V26.5121C11.6848 26.9089 11.7881 27.2988 11.9836 27.6441C12.1791 27.9895 12.4602 28.2787 12.7999 28.484L20.1169 32.877V44.3379C19.9349 44.2854 19.7593 44.2128 19.5933 44.1217L2.98193 34.5169ZM40.0503 32.3365C40.0484 32.7788 39.9306 33.2129 39.7087 33.5954C39.4867 33.978 39.1683 34.2957 38.7853 34.5169L22.1739 44.1209C22.0079 44.2121 21.8322 44.2846 21.6503 44.3371V32.877L28.9673 28.487C29.307 28.2818 29.5881 27.9926 29.7836 27.6472C29.9791 27.3019 30.0824 26.912 30.0836 26.5152V19.3852L40.0503 13.616C40.0503 13.6329 40.0503 13.6497 40.0503 13.6666V32.3365Z" fill="#68D1DF"/>
</svg>
