<svg width="43" height="46" viewBox="0 0 43 46" fill="none" xmlns="http://www.w3.org/2000/svg">
<path d="M40.1534 10.156L23.542 0.551229C22.916 0.190337 22.2061 0.000366211 21.4835 0.000366211C20.7609 0.000366211 20.051 0.190337 19.425 0.551229L2.81359 10.156C2.19816 10.5122 1.68685 11.0235 1.33064 11.639C0.974427 12.2544 0.785757 12.9525 0.783447 13.6635V32.3365C0.785757 33.0475 0.974427 33.7456 1.33064 34.361C1.68685 34.9765 2.19816 35.4878 2.81359 35.844L19.425 45.4488C20.051 45.8097 20.7609 45.9996 21.4835 45.9996C22.2061 45.9996 22.916 45.8097 23.542 45.4488L40.1534 35.844C40.7688 35.4878 41.2801 34.9765 41.6363 34.361C41.9925 33.7456 42.1812 33.0475 42.1835 32.3365V13.6635C42.1812 12.9525 41.9925 12.2544 41.6363 11.639C41.2801 11.0235 40.7688 10.5122 40.1534 10.156ZM3.58179 11.4831L20.1932 1.8791C20.5857 1.65327 21.0306 1.53443 21.4835 1.53443C21.9363 1.53443 22.3813 1.65327 22.7738 1.8791L39.3852 11.4831C39.6746 11.6509 39.9281 11.8742 40.1311 12.1402L29.9299 18.0435L22.7232 13.4366C22.3532 13.2011 21.9236 13.076 21.485 13.076C21.0464 13.076 20.6169 13.2011 20.2469 13.4366L13.0402 18.0435L2.83889 12.1402C3.04097 11.8745 3.29341 11.6512 3.58179 11.4831ZM21.4835 31.5483L14.4685 27.3401L21.0672 23.1173C21.1911 23.0374 21.3353 22.9949 21.4827 22.9949C21.6301 22.9949 21.7744 23.0374 21.8983 23.1173L28.4985 27.3409L21.4835 31.5483ZM29.1502 25.9363L22.7232 21.8239C22.352 21.5894 21.9218 21.4649 21.4827 21.4649C21.0436 21.4649 20.6135 21.5894 20.2423 21.8239L13.8168 25.9363V19.3683L21.0703 14.7323C21.1936 14.6533 21.337 14.6114 21.4835 14.6114C21.63 14.6114 21.7734 14.6533 21.8967 14.7323L29.1502 19.3683V25.9363ZM3.58179 34.5169C3.19874 34.2957 2.88036 33.978 2.65839 33.5954C2.43643 33.2129 2.31865 32.7788 2.31679 32.3365V13.6635C2.31679 13.6467 2.31679 13.6298 2.31679 13.6129L12.2835 19.3821V26.5121C12.2847 26.9089 12.388 27.2988 12.5835 27.6441C12.779 27.9895 13.0601 28.2787 13.3998 28.484L20.7168 32.877V44.3379C20.5348 44.2854 20.3592 44.2128 20.1932 44.1217L3.58179 34.5169ZM40.6502 32.3365C40.6483 32.7788 40.5305 33.2129 40.3086 33.5954C40.0866 33.978 39.7682 34.2957 39.3852 34.5169L22.7738 44.1209C22.6078 44.2121 22.4321 44.2846 22.2502 44.3371V32.877L29.5672 28.487C29.9069 28.2818 30.188 27.9926 30.3835 27.6472C30.579 27.3019 30.6823 26.912 30.6835 26.5152V19.3852L40.6502 13.616C40.6502 13.6329 40.6502 13.6497 40.6502 13.6666V32.3365Z" fill="#68D1DF"/>
</svg>
