<svg width="80" height="81" viewBox="0 0 80 81" fill="none" xmlns="http://www.w3.org/2000/svg">
<path d="M71.1225 8.51758L51.6367 28.5029" stroke="#68D1DF" stroke-width="1.5" stroke-linecap="round" stroke-linejoin="round"/>
<path d="M8.26562 8.51758L27.7514 28.5029" stroke="#68D1DF" stroke-width="1.5" stroke-linecap="round" stroke-linejoin="round"/>
<path d="M8.26562 72.9874L27.7514 53.002" stroke="#68D1DF" stroke-width="1.5" stroke-linecap="round" stroke-linejoin="round"/>
<path d="M71.1225 72.9874L51.6367 53.002" stroke="#68D1DF" stroke-width="1.5" stroke-linecap="round" stroke-linejoin="round"/>
<path d="M39.6956 78.8477C60.209 78.8477 76.8384 61.7919 76.8384 40.7526C76.8384 19.713 60.209 2.65723 39.6956 2.65723C19.1822 2.65723 2.55273 19.713 2.55273 40.7526C2.55273 61.7919 19.1822 78.8477 39.6956 78.8477Z" stroke="#68D1DF" stroke-width="1.5" stroke-linecap="round" stroke-linejoin="round"/>
<path d="M39.695 58.0425C49.005 58.0425 56.5522 50.3018 56.5522 40.7533C56.5522 31.2046 49.005 23.4639 39.695 23.4639C30.385 23.4639 22.8378 31.2046 22.8378 40.7533C22.8378 50.3018 30.385 58.0425 39.695 58.0425Z" stroke="#68D1DF" stroke-width="1.5" stroke-linecap="round" stroke-linejoin="round"/>
</svg>
