<svg width="21" height="21" viewBox="0 0 21 21" fill="none" xmlns="http://www.w3.org/2000/svg">
<path d="M0.398611 5.01543C0.527445 4.45092 0.844152 3.94688 1.29686 3.58587C1.74958 3.22486 2.31146 3.02828 2.89049 3.02832H18.2251C18.8041 3.02828 19.366 3.22486 19.8187 3.58587C20.2714 3.94688 20.5881 4.45092 20.717 5.01543L10.5578 11.2247L0.398611 5.01543ZM0.334717 6.47478V15.5529L7.75028 11.0062L0.334717 6.47478ZM0.580071 16.901L8.97577 11.755L10.5578 12.7224L12.1411 11.755L12.6101 12.0425C11.9667 12.5817 11.4495 13.2555 11.0949 14.0164C10.7402 14.7772 10.5569 15.6067 10.5578 16.4461C10.5578 17.1183 10.6728 17.7623 10.8849 18.3629H2.89049C2.40647 18.363 1.93237 18.2257 1.52336 17.9669C1.11435 17.7081 0.787229 17.3385 0.580071 16.901ZM20.7809 6.47478V12.831C20.2418 12.1641 19.5603 11.6262 18.7864 11.2567C18.0125 10.8873 17.1658 10.6955 16.3083 10.6956C15.4385 10.695 14.58 10.8916 13.7972 11.2707L13.3653 11.0062L20.7809 6.47478Z" fill="white"/>
<path d="M16.3083 20.9188C17.4945 20.9188 18.6321 20.4476 19.4709 19.6088C20.3097 18.7701 20.7809 17.6324 20.7809 16.4462C20.7809 15.26 20.3097 14.1224 19.4709 13.2836C18.6321 12.4449 17.4945 11.9736 16.3083 11.9736C15.1221 11.9736 13.9844 12.4449 13.1457 13.2836C12.3069 14.1224 11.8357 15.26 11.8357 16.4462C11.8357 17.6324 12.3069 18.7701 13.1457 19.6088C13.9844 20.4476 15.1221 20.9188 16.3083 20.9188ZM16.7606 14.077L18.358 15.6744C18.478 15.7944 18.5454 15.9571 18.5454 16.1268C18.5454 16.2964 18.478 16.4592 18.358 16.5791C18.238 16.6991 18.0753 16.7665 17.9056 16.7665C17.736 16.7665 17.5732 16.6991 17.4533 16.5791L16.9472 16.0718V18.3631C16.9472 18.5325 16.8799 18.695 16.7601 18.8149C16.6403 18.9347 16.4777 19.002 16.3083 19.002C16.1388 19.002 15.9763 18.9347 15.8565 18.8149C15.7366 18.695 15.6693 18.5325 15.6693 18.3631V16.1689L15.3115 16.5587C15.197 16.6836 15.0375 16.7578 14.8682 16.7652C14.6989 16.7725 14.5336 16.7122 14.4087 16.5977C14.2838 16.4831 14.2095 16.3236 14.2022 16.1543C14.1949 15.985 14.2552 15.8197 14.3697 15.6948L15.838 14.0975C15.8963 14.0339 15.9668 13.9828 16.0453 13.9472C16.1238 13.9116 16.2088 13.8922 16.295 13.8903C16.3812 13.8884 16.4669 13.904 16.5469 13.9361C16.6269 13.9681 16.6996 14.0161 16.7606 14.077Z" fill="white"/>
</svg>
