<svg width="80" height="81" viewBox="0 0 80 81" fill="none" xmlns="http://www.w3.org/2000/svg">
<path d="M71.7726 3.25488H8.91545C5.75953 3.25488 3.20117 5.81326 3.20117 8.96918V71.8264C3.20117 74.9822 5.75953 77.5406 8.91545 77.5406H71.7726C74.9286 77.5406 77.487 74.9822 77.487 71.8264V8.96918C77.487 5.81326 74.9286 3.25488 71.7726 3.25488Z" stroke="#68D1DF" stroke-width="1.5" stroke-linecap="round" stroke-linejoin="round"/>
<path d="M40.3438 66.1123C51.3893 66.1123 60.3438 57.1579 60.3438 46.1123C60.3438 35.0665 51.3893 26.1123 40.3438 26.1123C29.2979 26.1123 20.3438 35.0665 20.3438 46.1123C20.3438 57.1579 29.2979 66.1123 40.3438 66.1123Z" stroke="#68D1DF" stroke-width="1.5" stroke-linecap="round" stroke-linejoin="round"/>
<path d="M3.20117 20.3979H20.344" stroke="#68D1DF" stroke-width="1.5" stroke-linecap="round" stroke-linejoin="round"/>
<path d="M60.3438 20.3979H77.4866" stroke="#68D1DF" stroke-width="1.5" stroke-linecap="round" stroke-linejoin="round"/>
<path d="M40.3438 45.9409V65.9409" stroke="#68D1DF" stroke-width="1.5" stroke-linecap="round" stroke-linejoin="round"/>
<path d="M23.2012 35.8267L40.344 45.9409" stroke="#68D1DF" stroke-width="1.5" stroke-linecap="round" stroke-linejoin="round"/>
<path d="M57.4865 35.8267L40.3438 45.9409" stroke="#68D1DF" stroke-width="1.5" stroke-linecap="round" stroke-linejoin="round"/>
</svg>
