<svg width="1565" height="555" viewBox="0 0 1565 555" fill="none" xmlns="http://www.w3.org/2000/svg">
<mask id="mask0_60_549" style="mask-type:alpha" maskUnits="userSpaceOnUse" x="-1" y="16" width="1566" height="555">
<rect x="-0.378845" y="16.6146" width="1564.76" height="553.778" fill="#D9D9D9"/>
</mask>
<g mask="url(#mask0_60_549)">
<path d="M154.649 194.242V118.252H179.435C187.663 118.252 194.803 119.884 200.855 123.148C206.907 126.412 211.599 130.9 214.931 136.612C218.263 142.324 219.929 148.852 219.929 156.196C219.929 163.54 218.263 170.102 214.931 175.882C211.599 181.594 206.907 186.082 200.855 189.346C194.803 192.61 187.663 194.242 179.435 194.242H154.649ZM170.459 180.472H179.843C184.807 180.472 189.091 179.486 192.695 177.514C196.299 175.474 199.087 172.652 201.059 169.048C203.099 165.376 204.119 161.092 204.119 156.196C204.119 151.232 203.099 146.948 201.059 143.344C199.087 139.74 196.299 136.952 192.695 134.98C189.091 133.008 184.807 132.022 179.843 132.022H170.459V180.472ZM228.931 194.242V138.55H244.231V194.242H228.931ZM228.931 133.552V118.252H244.231V133.552H228.931ZM282.763 216.682C278.479 216.682 274.501 215.968 270.829 214.54C267.157 213.112 263.995 211.106 261.343 208.522C258.759 206.006 256.889 203.014 255.733 199.546L269.911 194.548C270.659 197.132 272.189 199.172 274.501 200.668C276.813 202.164 279.567 202.912 282.763 202.912C285.279 202.912 287.455 202.436 289.291 201.484C291.127 200.6 292.521 199.274 293.473 197.506C294.493 195.738 295.003 193.664 295.003 191.284V178.534L297.961 182.206C296.057 185.334 293.609 187.68 290.617 189.244C287.625 190.74 284.123 191.488 280.111 191.488C274.943 191.488 270.319 190.332 266.239 188.02C262.159 185.64 258.963 182.41 256.651 178.33C254.339 174.182 253.183 169.49 253.183 164.254C253.183 159.018 254.339 154.394 256.651 150.382C258.963 146.302 262.125 143.106 266.137 140.794C270.149 138.482 274.705 137.326 279.805 137.326C283.817 137.326 287.319 138.142 290.311 139.774C293.303 141.338 295.853 143.752 297.961 147.016L296.023 150.688V138.55H310.303V191.284C310.303 196.18 309.113 200.532 306.733 204.34C304.353 208.216 301.089 211.242 296.941 213.418C292.861 215.594 288.135 216.682 282.763 216.682ZM282.253 177.616C284.837 177.616 287.081 177.072 288.985 175.984C290.889 174.896 292.351 173.366 293.371 171.394C294.459 169.422 295.003 167.11 295.003 164.458C295.003 161.806 294.459 159.494 293.371 157.522C292.283 155.482 290.787 153.918 288.883 152.83C286.979 151.674 284.769 151.096 282.253 151.096C279.669 151.096 277.357 151.674 275.317 152.83C273.345 153.918 271.781 155.482 270.625 157.522C269.537 159.494 268.993 161.806 268.993 164.458C268.993 167.042 269.537 169.32 270.625 171.292C271.781 173.264 273.345 174.828 275.317 175.984C277.357 177.072 279.669 177.616 282.253 177.616ZM321.568 194.242V138.55H336.868V194.242H321.568ZM321.568 133.552V118.252H336.868V133.552H321.568ZM374.89 194.854C368.158 194.854 362.922 193.052 359.182 189.448C355.51 185.776 353.674 180.676 353.674 174.148V151.81H344.29V138.55H344.8C347.656 138.55 349.832 137.836 351.328 136.408C352.892 134.98 353.674 132.838 353.674 129.982V125.902H368.974V138.55H382.03V151.81H368.974V173.128C368.974 175.032 369.314 176.63 369.994 177.922C370.674 179.146 371.728 180.064 373.156 180.676C374.584 181.288 376.352 181.594 378.46 181.594C378.936 181.594 379.48 181.56 380.092 181.492C380.704 181.424 381.35 181.356 382.03 181.288V194.242C381.01 194.378 379.854 194.514 378.562 194.65C377.27 194.786 376.046 194.854 374.89 194.854ZM408.234 195.466C404.222 195.466 400.754 194.82 397.83 193.528C394.906 192.236 392.662 190.4 391.098 188.02C389.534 185.572 388.752 182.682 388.752 179.35C388.752 176.222 389.466 173.468 390.894 171.088C392.322 168.64 394.498 166.6 397.422 164.968C400.414 163.336 404.12 162.18 408.54 161.5L425.574 158.746V169.966L411.294 172.516C409.118 172.924 407.452 173.638 406.296 174.658C405.14 175.61 404.562 177.004 404.562 178.84C404.562 180.54 405.208 181.866 406.5 182.818C407.792 183.77 409.39 184.246 411.294 184.246C413.81 184.246 416.02 183.702 417.924 182.614C419.828 181.526 421.29 180.064 422.31 178.228C423.398 176.324 423.942 174.25 423.942 172.006V157.522C423.942 155.414 423.092 153.646 421.392 152.218C419.76 150.79 417.516 150.076 414.66 150.076C411.94 150.076 409.526 150.824 407.418 152.32C405.378 153.816 403.882 155.788 402.93 158.236L390.69 152.422C391.778 149.294 393.512 146.608 395.892 144.364C398.272 142.12 401.128 140.386 404.46 139.162C407.792 137.938 411.43 137.326 415.374 137.326C420.066 137.326 424.214 138.176 427.818 139.876C431.422 141.576 434.21 143.956 436.182 147.016C438.222 150.008 439.242 153.51 439.242 157.522V194.242H424.962V185.266L428.43 184.654C426.798 187.102 424.996 189.142 423.024 190.774C421.052 192.338 418.842 193.494 416.394 194.242C413.946 195.058 411.226 195.466 408.234 195.466ZM450.463 194.242V117.028H465.763V194.242H450.463ZM524.051 195.466C519.291 195.466 514.803 194.616 510.587 192.916C506.439 191.148 502.835 188.666 499.775 185.47C496.783 182.274 494.539 178.5 493.043 174.148L505.997 168.334C507.901 172.482 510.519 175.746 513.851 178.126C517.251 180.506 520.991 181.696 525.071 181.696C527.247 181.696 529.117 181.356 530.681 180.676C532.245 179.996 533.469 179.078 534.353 177.922C535.237 176.698 535.679 175.27 535.679 173.638C535.679 171.87 535.135 170.374 534.047 169.15C532.959 167.858 531.259 166.838 528.947 166.09L514.055 161.194C508.003 159.222 503.447 156.434 500.387 152.83C497.327 149.158 495.797 144.772 495.797 139.672C495.797 135.184 496.885 131.24 499.061 127.84C501.305 124.44 504.399 121.788 508.343 119.884C512.355 117.98 516.945 117.028 522.113 117.028C526.669 117.028 530.885 117.81 534.761 119.374C538.637 120.938 541.969 123.148 544.757 126.004C547.613 128.86 549.755 132.294 551.183 136.306L538.331 142.12C536.903 138.584 534.761 135.83 531.905 133.858C529.049 131.818 525.785 130.798 522.113 130.798C520.005 130.798 518.135 131.138 516.503 131.818C514.871 132.498 513.613 133.484 512.729 134.776C511.845 136 511.403 137.428 511.403 139.06C511.403 140.828 511.981 142.392 513.137 143.752C514.293 145.044 516.027 146.064 518.339 146.812L532.925 151.504C539.045 153.476 543.601 156.23 546.593 159.766C549.653 163.302 551.183 167.62 551.183 172.72C551.183 177.14 550.027 181.084 547.715 184.552C545.403 187.952 542.207 190.638 538.127 192.61C534.115 194.514 529.423 195.466 524.051 195.466ZM588.97 195.466C583.462 195.466 578.43 194.208 573.874 191.692C569.386 189.176 565.782 185.742 563.062 181.39C560.41 176.97 559.084 171.972 559.084 166.396C559.084 160.752 560.41 155.754 563.062 151.402C565.782 147.05 569.386 143.616 573.874 141.1C578.43 138.584 583.462 137.326 588.97 137.326C594.478 137.326 599.476 138.584 603.964 141.1C608.452 143.616 612.022 147.05 614.674 151.402C617.394 155.754 618.754 160.752 618.754 166.396C618.754 171.972 617.394 176.97 614.674 181.39C612.022 185.742 608.452 189.176 603.964 191.692C599.476 194.208 594.478 195.466 588.97 195.466ZM588.97 181.696C591.758 181.696 594.172 181.05 596.212 179.758C598.32 178.466 599.952 176.664 601.108 174.352C602.332 172.04 602.944 169.388 602.944 166.396C602.944 163.404 602.332 160.786 601.108 158.542C599.952 156.23 598.32 154.428 596.212 153.136C594.172 151.776 591.758 151.096 588.97 151.096C586.182 151.096 583.734 151.776 581.626 153.136C579.518 154.428 577.852 156.23 576.628 158.542C575.472 160.786 574.894 163.404 574.894 166.396C574.894 169.388 575.472 172.04 576.628 174.352C577.852 176.664 579.518 178.466 581.626 179.758C583.734 181.05 586.182 181.696 588.97 181.696ZM627.767 194.242V117.028H643.067V194.242H627.767ZM674.255 195.466C669.767 195.466 665.925 194.514 662.729 192.61C659.601 190.638 657.221 187.918 655.589 184.45C653.957 180.982 653.141 176.936 653.141 172.312V138.55H668.441V171.088C668.441 173.196 668.849 175.066 669.665 176.698C670.549 178.262 671.773 179.486 673.337 180.37C674.901 181.254 676.669 181.696 678.641 181.696C680.681 181.696 682.449 181.254 683.945 180.37C685.509 179.486 686.699 178.262 687.515 176.698C688.399 175.066 688.841 173.196 688.841 171.088V138.55H704.141V194.242H689.861V183.226L690.677 185.674C689.385 189.006 687.277 191.488 684.353 193.12C681.497 194.684 678.131 195.466 674.255 195.466ZM742.15 194.854C735.418 194.854 730.182 193.052 726.442 189.448C722.77 185.776 720.934 180.676 720.934 174.148V151.81H711.55V138.55H712.06C714.916 138.55 717.092 137.836 718.588 136.408C720.152 134.98 720.934 132.838 720.934 129.982V125.902H736.234V138.55H749.29V151.81H736.234V173.128C736.234 175.032 736.574 176.63 737.254 177.922C737.934 179.146 738.988 180.064 740.416 180.676C741.844 181.288 743.612 181.594 745.72 181.594C746.196 181.594 746.74 181.56 747.352 181.492C747.964 181.424 748.61 181.356 749.29 181.288V194.242C748.27 194.378 747.114 194.514 745.822 194.65C744.53 194.786 743.306 194.854 742.15 194.854ZM758.255 194.242V138.55H773.555V194.242H758.255ZM758.255 133.552V118.252H773.555V133.552H758.255ZM812.394 195.466C806.886 195.466 801.854 194.208 797.298 191.692C792.81 189.176 789.206 185.742 786.486 181.39C783.834 176.97 782.508 171.972 782.508 166.396C782.508 160.752 783.834 155.754 786.486 151.402C789.206 147.05 792.81 143.616 797.298 141.1C801.854 138.584 806.886 137.326 812.394 137.326C817.902 137.326 822.9 138.584 827.388 141.1C831.876 143.616 835.446 147.05 838.098 151.402C840.818 155.754 842.178 160.752 842.178 166.396C842.178 171.972 840.818 176.97 838.098 181.39C835.446 185.742 831.876 189.176 827.388 191.692C822.9 194.208 817.902 195.466 812.394 195.466ZM812.394 181.696C815.182 181.696 817.596 181.05 819.636 179.758C821.744 178.466 823.376 176.664 824.532 174.352C825.756 172.04 826.368 169.388 826.368 166.396C826.368 163.404 825.756 160.786 824.532 158.542C823.376 156.23 821.744 154.428 819.636 153.136C817.596 151.776 815.182 151.096 812.394 151.096C809.606 151.096 807.158 151.776 805.05 153.136C802.942 154.428 801.276 156.23 800.052 158.542C798.896 160.786 798.318 163.404 798.318 166.396C798.318 169.388 798.896 172.04 800.052 174.352C801.276 176.664 802.942 178.466 805.05 179.758C807.158 181.05 809.606 181.696 812.394 181.696ZM851.191 194.242V138.55H865.471V149.566L864.655 147.118C865.947 143.786 868.021 141.338 870.877 139.774C873.801 138.142 877.201 137.326 881.077 137.326C885.293 137.326 888.965 138.21 892.093 139.978C895.289 141.746 897.771 144.228 899.539 147.424C901.307 150.552 902.191 154.224 902.191 158.44V194.242H886.891V161.704C886.891 159.528 886.449 157.658 885.565 156.094C884.749 154.53 883.559 153.306 881.995 152.422C880.499 151.538 878.731 151.096 876.691 151.096C874.719 151.096 872.951 151.538 871.387 152.422C869.823 153.306 868.599 154.53 867.715 156.094C866.899 157.658 866.491 159.528 866.491 161.704V194.242H851.191ZM1334.89 194.242V138.55H1350.19V194.242H1334.89ZM1334.89 133.552V118.252H1350.19V133.552H1334.89ZM1361.39 194.242V138.55H1375.67V149.566L1374.85 147.118C1376.15 143.786 1378.22 141.338 1381.08 139.774C1384 138.142 1387.4 137.326 1391.28 137.326C1395.49 137.326 1399.16 138.21 1402.29 139.978C1405.49 141.746 1407.97 144.228 1409.74 147.424C1411.51 150.552 1412.39 154.224 1412.39 158.44V194.242H1397.09V161.704C1397.09 159.528 1396.65 157.658 1395.76 156.094C1394.95 154.53 1393.76 153.306 1392.19 152.422C1390.7 151.538 1388.93 151.096 1386.89 151.096C1384.92 151.096 1383.15 151.538 1381.59 152.422C1380.02 153.306 1378.8 154.53 1377.91 156.094C1377.1 157.658 1376.69 159.528 1376.69 161.704V194.242H1361.39ZM493.52 317.466C488.76 317.466 484.272 316.616 480.056 314.916C475.908 313.148 472.304 310.666 469.244 307.47C466.252 304.274 464.008 300.5 462.512 296.148L475.466 290.334C477.37 294.482 479.988 297.746 483.32 300.126C486.72 302.506 490.46 303.696 494.54 303.696C496.716 303.696 498.586 303.356 500.15 302.676C501.714 301.996 502.938 301.078 503.822 299.922C504.706 298.698 505.148 297.27 505.148 295.638C505.148 293.87 504.604 292.374 503.516 291.15C502.428 289.858 500.728 288.838 498.416 288.09L483.524 283.194C477.472 281.222 472.916 278.434 469.856 274.83C466.796 271.158 465.266 266.772 465.266 261.672C465.266 257.184 466.354 253.24 468.53 249.84C470.774 246.44 473.868 243.788 477.812 241.884C481.824 239.98 486.414 239.028 491.582 239.028C496.138 239.028 500.354 239.81 504.23 241.374C508.106 242.938 511.438 245.148 514.226 248.004C517.082 250.86 519.224 254.294 520.652 258.306L507.8 264.12C506.372 260.584 504.23 257.83 501.374 255.858C498.518 253.818 495.254 252.798 491.582 252.798C489.474 252.798 487.604 253.138 485.972 253.818C484.34 254.498 483.082 255.484 482.198 256.776C481.314 258 480.872 259.428 480.872 261.06C480.872 262.828 481.45 264.392 482.606 265.752C483.762 267.044 485.496 268.064 487.808 268.812L502.394 273.504C508.514 275.476 513.07 278.23 516.062 281.766C519.122 285.302 520.652 289.62 520.652 294.72C520.652 299.14 519.496 303.084 517.184 306.552C514.872 309.952 511.676 312.638 507.596 314.61C503.584 316.514 498.892 317.466 493.52 317.466ZM548.035 317.466C544.023 317.466 540.555 316.82 537.631 315.528C534.707 314.236 532.463 312.4 530.899 310.02C529.335 307.572 528.553 304.682 528.553 301.35C528.553 298.222 529.267 295.468 530.695 293.088C532.123 290.64 534.299 288.6 537.223 286.968C540.215 285.336 543.921 284.18 548.341 283.5L565.375 280.746V291.966L551.095 294.516C548.919 294.924 547.253 295.638 546.097 296.658C544.941 297.61 544.363 299.004 544.363 300.84C544.363 302.54 545.009 303.866 546.301 304.818C547.593 305.77 549.191 306.246 551.095 306.246C553.611 306.246 555.821 305.702 557.725 304.614C559.629 303.526 561.091 302.064 562.111 300.228C563.199 298.324 563.743 296.25 563.743 294.006V279.522C563.743 277.414 562.893 275.646 561.193 274.218C559.561 272.79 557.317 272.076 554.461 272.076C551.741 272.076 549.327 272.824 547.219 274.32C545.179 275.816 543.683 277.788 542.731 280.236L530.491 274.422C531.579 271.294 533.313 268.608 535.693 266.364C538.073 264.12 540.929 262.386 544.261 261.162C547.593 259.938 551.231 259.326 555.175 259.326C559.867 259.326 564.015 260.176 567.619 261.876C571.223 263.576 574.011 265.956 575.983 269.016C578.023 272.008 579.043 275.51 579.043 279.522V316.242H564.763V307.266L568.231 306.654C566.599 309.102 564.797 311.142 562.825 312.774C560.853 314.338 558.643 315.494 556.195 316.242C553.747 317.058 551.027 317.466 548.035 317.466ZM610.256 317.466C605.768 317.466 601.926 316.514 598.73 314.61C595.602 312.638 593.222 309.918 591.59 306.45C589.958 302.982 589.142 298.936 589.142 294.312V260.55H604.442V293.088C604.442 295.196 604.85 297.066 605.666 298.698C606.55 300.262 607.774 301.486 609.338 302.37C610.902 303.254 612.67 303.696 614.642 303.696C616.682 303.696 618.45 303.254 619.946 302.37C621.51 301.486 622.7 300.262 623.516 298.698C624.4 297.066 624.842 295.196 624.842 293.088V260.55H640.142V316.242H625.862V305.226L626.678 307.674C625.386 311.006 623.278 313.488 620.354 315.12C617.498 316.684 614.132 317.466 610.256 317.466ZM677.539 317.466C672.099 317.466 667.237 316.174 662.953 313.59C658.669 311.006 655.269 307.504 652.753 303.084C650.305 298.664 649.081 293.768 649.081 288.396C649.081 282.956 650.339 278.06 652.855 273.708C655.371 269.288 658.771 265.786 663.055 263.202C667.339 260.618 672.133 259.326 677.437 259.326C681.517 259.326 685.121 260.108 688.249 261.672C691.445 263.168 693.961 265.31 695.797 268.098L693.451 271.158V239.028H708.751V316.242H694.471V306.042L695.899 309.204C693.995 311.924 691.411 313.998 688.147 315.426C684.883 316.786 681.347 317.466 677.539 317.466ZM679.375 303.696C682.163 303.696 684.611 303.05 686.719 301.758C688.827 300.466 690.459 298.664 691.615 296.352C692.839 294.04 693.451 291.388 693.451 288.396C693.451 285.404 692.839 282.752 691.615 280.44C690.459 278.128 688.827 276.326 686.719 275.034C684.611 273.742 682.163 273.096 679.375 273.096C676.587 273.096 674.071 273.776 671.827 275.136C669.651 276.428 667.951 278.23 666.727 280.542C665.503 282.786 664.891 285.404 664.891 288.396C664.891 291.388 665.503 294.04 666.727 296.352C667.951 298.664 669.651 300.466 671.827 301.758C674.071 303.05 676.587 303.696 679.375 303.696ZM719.956 316.242V260.55H735.256V316.242H719.956ZM719.956 255.552V240.252H735.256V255.552H719.956ZM760.292 316.242L785.996 240.252H807.008L832.712 316.242H815.474L810.374 300.738H782.528L777.428 316.242H760.292ZM786.914 286.968H805.988L794.36 251.064H798.644L786.914 286.968ZM839.487 316.242V260.55H853.767V273.912L852.747 271.974C853.971 267.282 855.977 264.12 858.765 262.488C861.621 260.788 864.987 259.938 868.863 259.938H872.127V273.198H867.333C863.593 273.198 860.567 274.354 858.255 276.666C855.943 278.91 854.787 282.106 854.787 286.254V316.242H839.487ZM896.071 317.466C892.059 317.466 888.591 316.82 885.667 315.528C882.743 314.236 880.499 312.4 878.935 310.02C877.371 307.572 876.589 304.682 876.589 301.35C876.589 298.222 877.303 295.468 878.731 293.088C880.159 290.64 882.335 288.6 885.259 286.968C888.251 285.336 891.957 284.18 896.377 283.5L913.411 280.746V291.966L899.131 294.516C896.955 294.924 895.289 295.638 894.133 296.658C892.977 297.61 892.399 299.004 892.399 300.84C892.399 302.54 893.045 303.866 894.337 304.818C895.629 305.77 897.227 306.246 899.131 306.246C901.647 306.246 903.857 305.702 905.761 304.614C907.665 303.526 909.127 302.064 910.147 300.228C911.235 298.324 911.779 296.25 911.779 294.006V279.522C911.779 277.414 910.929 275.646 909.229 274.218C907.597 272.79 905.353 272.076 902.497 272.076C899.777 272.076 897.363 272.824 895.255 274.32C893.215 275.816 891.719 277.788 890.767 280.236L878.527 274.422C879.615 271.294 881.349 268.608 883.729 266.364C886.109 264.12 888.965 262.386 892.297 261.162C895.629 259.938 899.267 259.326 903.211 259.326C907.903 259.326 912.051 260.176 915.655 261.876C919.259 263.576 922.047 265.956 924.019 269.016C926.059 272.008 927.079 275.51 927.079 279.522V316.242H912.799V307.266L916.267 306.654C914.635 309.102 912.833 311.142 910.861 312.774C908.889 314.338 906.679 315.494 904.231 316.242C901.783 317.058 899.063 317.466 896.071 317.466ZM969.511 317.466C965.703 317.466 962.167 316.786 958.903 315.426C955.707 313.998 953.123 311.924 951.151 309.204L952.579 306.042V316.242H938.299V239.028H953.599V271.158L951.253 268.098C953.089 265.31 955.571 263.168 958.699 261.672C961.895 260.108 965.533 259.326 969.613 259.326C974.917 259.326 979.711 260.618 983.995 263.202C988.279 265.786 991.679 269.288 994.195 273.708C996.711 278.06 997.969 282.956 997.969 288.396C997.969 293.768 996.711 298.664 994.195 303.084C991.747 307.504 988.381 311.006 984.097 313.59C979.813 316.174 974.951 317.466 969.511 317.466ZM967.675 303.696C970.531 303.696 973.047 303.05 975.223 301.758C977.399 300.466 979.099 298.664 980.323 296.352C981.547 294.04 982.159 291.388 982.159 288.396C982.159 285.404 981.547 282.786 980.323 280.542C979.099 278.23 977.399 276.428 975.223 275.136C973.047 273.776 970.531 273.096 967.675 273.096C964.955 273.096 962.507 273.742 960.331 275.034C958.223 276.326 956.557 278.128 955.333 280.44C954.177 282.752 953.599 285.404 953.599 288.396C953.599 291.388 954.177 294.04 955.333 296.352C956.557 298.664 958.223 300.466 960.331 301.758C962.507 303.05 964.955 303.696 967.675 303.696ZM1006.93 316.242V260.55H1022.23V316.242H1006.93ZM1006.93 255.552V240.252H1022.23V255.552H1006.93ZM1050.66 317.466C1046.65 317.466 1043.18 316.82 1040.26 315.528C1037.34 314.236 1035.09 312.4 1033.53 310.02C1031.96 307.572 1031.18 304.682 1031.18 301.35C1031.18 298.222 1031.9 295.468 1033.32 293.088C1034.75 290.64 1036.93 288.6 1039.85 286.968C1042.84 285.336 1046.55 284.18 1050.97 283.5L1068 280.746V291.966L1053.72 294.516C1051.55 294.924 1049.88 295.638 1048.73 296.658C1047.57 297.61 1046.99 299.004 1046.99 300.84C1046.99 302.54 1047.64 303.866 1048.93 304.818C1050.22 305.77 1051.82 306.246 1053.72 306.246C1056.24 306.246 1058.45 305.702 1060.35 304.614C1062.26 303.526 1063.72 302.064 1064.74 300.228C1065.83 298.324 1066.37 296.25 1066.37 294.006V279.522C1066.37 277.414 1065.52 275.646 1063.82 274.218C1062.19 272.79 1059.95 272.076 1057.09 272.076C1054.37 272.076 1051.96 272.824 1049.85 274.32C1047.81 275.816 1046.31 277.788 1045.36 280.236L1033.12 274.422C1034.21 271.294 1035.94 268.608 1038.32 266.364C1040.7 264.12 1043.56 262.386 1046.89 261.162C1050.22 259.938 1053.86 259.326 1057.8 259.326C1062.5 259.326 1066.64 260.176 1070.25 261.876C1073.85 263.576 1076.64 265.956 1078.61 269.016C1080.65 272.008 1081.67 275.51 1081.67 279.522V316.242H1067.39V307.266L1070.86 306.654C1069.23 309.102 1067.43 311.142 1065.45 312.774C1063.48 314.338 1061.27 315.494 1058.82 316.242C1056.38 317.058 1053.66 317.466 1050.66 317.466Z" fill="white"/>
<path d="M433.594 390.738V367.804H426.542V365.237H443.315V367.804H436.332V390.738H433.594ZM451.45 391.149C450.172 391.149 449.009 390.852 447.959 390.259C446.909 389.643 446.076 388.798 445.46 387.726C444.867 386.63 444.57 385.375 444.57 383.96V372.391H447.137V383.652C447.137 384.634 447.331 385.501 447.719 386.254C448.13 386.984 448.689 387.555 449.396 387.965C450.127 388.376 450.96 388.581 451.895 388.581C452.831 388.581 453.664 388.376 454.394 387.965C455.124 387.532 455.695 386.927 456.105 386.151C456.516 385.352 456.721 384.405 456.721 383.31V372.391H459.289V390.738H456.721V387.178L457.303 387.315C456.87 388.502 456.128 389.437 455.078 390.122C454.029 390.806 452.819 391.149 451.45 391.149ZM464.568 390.738V372.391H467.135V375.403L466.793 374.958C467.227 374.091 467.877 373.407 468.744 372.905C469.634 372.402 470.707 372.151 471.962 372.151H473.125V374.719H471.517C470.193 374.719 469.132 375.129 468.333 375.951C467.535 376.772 467.135 377.936 467.135 379.442V390.738H464.568ZM476.134 390.738V372.391H478.701V375.951L478.119 375.814C478.576 374.627 479.317 373.692 480.344 373.007C481.394 372.323 482.603 371.98 483.972 371.98C485.273 371.98 486.437 372.277 487.464 372.87C488.513 373.464 489.335 374.285 489.928 375.335C490.544 376.362 490.852 377.525 490.852 378.826V390.738H488.285V379.819C488.285 378.701 488.08 377.754 487.669 376.978C487.281 376.202 486.722 375.609 485.992 375.198C485.284 374.764 484.463 374.548 483.527 374.548C482.592 374.548 481.759 374.764 481.029 375.198C480.298 375.609 479.728 376.213 479.317 377.012C478.906 377.788 478.701 378.723 478.701 379.819V390.738H476.134ZM495.755 390.738V372.391H498.323V390.738H495.755ZM495.755 369.002V365.237H498.323V369.002H495.755ZM503.577 390.738V372.391H506.145V375.951L505.563 375.814C506.019 374.627 506.761 373.692 507.787 373.007C508.837 372.323 510.047 371.98 511.416 371.98C512.716 371.98 513.88 372.277 514.907 372.87C515.957 373.464 516.778 374.285 517.372 375.335C517.988 376.362 518.296 377.525 518.296 378.826V390.738H515.729V379.819C515.729 378.701 515.523 377.754 515.113 376.978C514.725 376.202 514.166 375.609 513.435 375.198C512.728 374.764 511.906 374.548 510.971 374.548C510.035 374.548 509.202 374.764 508.472 375.198C507.742 375.609 507.171 376.213 506.761 377.012C506.35 377.788 506.145 378.723 506.145 379.819V390.738H503.577ZM531.893 398.268C530.638 398.268 529.474 398.074 528.402 397.686C527.352 397.298 526.439 396.762 525.663 396.078C524.91 395.416 524.328 394.64 523.918 393.75L526.279 392.484C526.645 393.351 527.295 394.104 528.231 394.743C529.166 395.382 530.364 395.701 531.825 395.701C532.943 395.701 533.97 395.484 534.905 395.051C535.841 394.617 536.594 393.978 537.164 393.134C537.735 392.29 538.02 391.251 538.02 390.019V385.946L538.431 386.322C537.792 387.646 536.845 388.673 535.59 389.403C534.335 390.11 532.966 390.464 531.482 390.464C529.771 390.464 528.231 390.053 526.861 389.232C525.492 388.41 524.408 387.304 523.61 385.912C522.834 384.497 522.446 382.934 522.446 381.222C522.446 379.488 522.834 377.925 523.61 376.533C524.408 375.141 525.481 374.034 526.827 373.213C528.196 372.391 529.748 371.98 531.482 371.98C532.966 371.98 534.312 372.323 535.521 373.007C536.754 373.692 537.723 374.616 538.431 375.78L538.02 376.499V372.391H540.587V390.019C540.587 391.594 540.211 392.997 539.458 394.229C538.727 395.484 537.701 396.466 536.377 397.173C535.076 397.903 533.582 398.268 531.893 398.268ZM531.619 387.897C532.806 387.897 533.878 387.6 534.837 387.007C535.795 386.391 536.56 385.581 537.13 384.577C537.723 383.55 538.02 382.432 538.02 381.222C538.02 380.013 537.723 378.906 537.13 377.902C536.56 376.875 535.795 376.065 534.837 375.472C533.878 374.856 532.806 374.548 531.619 374.548C530.41 374.548 529.314 374.856 528.333 375.472C527.352 376.065 526.576 376.864 526.006 377.868C525.458 378.872 525.184 379.99 525.184 381.222C525.184 382.432 525.458 383.55 526.006 384.577C526.576 385.581 527.341 386.391 528.299 387.007C529.28 387.6 530.387 387.897 531.619 387.897ZM552.055 390.738V365.237H554.793V390.738H552.055ZM568.72 391.149C567.008 391.149 565.468 390.738 564.099 389.916C562.73 389.072 561.646 387.931 560.847 386.493C560.071 385.033 559.683 383.39 559.683 381.564C559.683 379.716 560.071 378.073 560.847 376.635C561.646 375.198 562.718 374.068 564.065 373.247C565.434 372.402 566.986 371.98 568.72 371.98C570.294 371.98 571.698 372.323 572.93 373.007C574.162 373.692 575.132 374.616 575.839 375.78L575.429 376.499V364.826H577.996V390.738H575.429V386.63L575.839 387.007C575.2 388.33 574.242 389.357 572.964 390.088C571.709 390.795 570.294 391.149 568.72 391.149ZM568.857 388.581C570.089 388.581 571.196 388.273 572.177 387.657C573.181 387.041 573.968 386.208 574.539 385.159C575.132 384.086 575.429 382.888 575.429 381.564C575.429 380.241 575.132 379.054 574.539 378.005C573.968 376.932 573.181 376.088 572.177 375.472C571.196 374.856 570.089 374.548 568.857 374.548C567.647 374.548 566.552 374.856 565.571 375.472C564.589 376.088 563.814 376.921 563.243 377.97C562.695 379.02 562.422 380.218 562.422 381.564C562.422 382.888 562.695 384.086 563.243 385.159C563.814 386.208 564.578 387.041 565.536 387.657C566.518 388.273 567.624 388.581 568.857 388.581ZM591.619 391.149C589.907 391.149 588.356 390.738 586.964 389.916C585.594 389.072 584.511 387.92 583.712 386.459C582.913 384.999 582.514 383.344 582.514 381.496C582.514 379.648 582.902 378.016 583.678 376.601C584.453 375.164 585.503 374.034 586.827 373.213C588.173 372.391 589.679 371.98 591.345 371.98C592.668 371.98 593.844 372.231 594.871 372.733C595.92 373.213 596.81 373.874 597.54 374.719C598.271 375.54 598.83 376.476 599.218 377.525C599.606 378.552 599.8 379.613 599.8 380.709C599.8 380.937 599.788 381.199 599.765 381.496C599.742 381.77 599.708 382.055 599.663 382.352H584.157V379.956H598.191L596.959 380.983C597.164 379.728 597.016 378.609 596.514 377.628C596.034 376.624 595.338 375.837 594.426 375.266C593.513 374.673 592.486 374.376 591.345 374.376C590.204 374.376 589.143 374.673 588.162 375.266C587.203 375.86 586.45 376.693 585.903 377.765C585.355 378.815 585.138 380.07 585.252 381.53C585.138 382.991 585.366 384.269 585.937 385.364C586.53 386.436 587.329 387.269 588.333 387.863C589.36 388.456 590.455 388.753 591.619 388.753C592.965 388.753 594.095 388.433 595.007 387.794C595.92 387.155 596.662 386.357 597.232 385.398L599.423 386.562C599.058 387.383 598.499 388.148 597.746 388.855C596.993 389.54 596.091 390.099 595.042 390.532C594.015 390.943 592.874 391.149 591.619 391.149ZM609.297 391.149C608.133 391.149 607.095 390.932 606.182 390.498C605.269 390.042 604.551 389.426 604.026 388.65C603.501 387.874 603.238 386.984 603.238 385.98C603.238 385.022 603.444 384.154 603.855 383.379C604.265 382.58 604.904 381.907 605.771 381.359C606.639 380.811 607.745 380.423 609.092 380.195L616.28 378.997V381.325L609.708 382.42C608.384 382.648 607.426 383.071 606.833 383.687C606.262 384.303 605.977 385.033 605.977 385.877C605.977 386.699 606.296 387.395 606.935 387.965C607.597 388.536 608.441 388.821 609.468 388.821C610.723 388.821 611.819 388.559 612.754 388.034C613.69 387.486 614.42 386.756 614.945 385.843C615.47 384.93 615.732 383.915 615.732 382.797V378.142C615.732 377.046 615.333 376.156 614.534 375.472C613.735 374.787 612.697 374.445 611.419 374.445C610.301 374.445 609.32 374.73 608.476 375.301C607.631 375.848 607.004 376.567 606.593 377.457L604.265 376.19C604.608 375.415 605.144 374.707 605.874 374.068C606.627 373.429 607.483 372.927 608.441 372.562C609.4 372.174 610.392 371.98 611.419 371.98C612.766 371.98 613.952 372.243 614.979 372.768C616.029 373.292 616.839 374.023 617.409 374.958C618.003 375.871 618.299 376.932 618.299 378.142V390.738H615.732V387.075L616.109 387.452C615.789 388.136 615.287 388.764 614.603 389.334C613.941 389.882 613.153 390.327 612.241 390.669C611.351 390.989 610.37 391.149 609.297 391.149ZM629.946 391.149C628.189 391.149 626.649 390.704 625.325 389.814C624.002 388.924 623.043 387.714 622.45 386.185L624.606 385.159C625.131 386.277 625.862 387.167 626.797 387.828C627.756 388.49 628.805 388.821 629.946 388.821C631.042 388.821 631.966 388.559 632.719 388.034C633.472 387.486 633.848 386.779 633.848 385.912C633.848 385.273 633.666 384.771 633.301 384.405C632.936 384.018 632.513 383.721 632.034 383.516C631.555 383.31 631.133 383.162 630.768 383.071L628.132 382.318C626.443 381.838 625.223 381.165 624.47 380.298C623.717 379.431 623.34 378.427 623.34 377.286C623.34 376.213 623.614 375.278 624.162 374.479C624.709 373.68 625.451 373.064 626.386 372.631C627.322 372.197 628.36 371.98 629.501 371.98C631.053 371.98 632.456 372.391 633.711 373.213C634.989 374.011 635.891 375.129 636.416 376.567L634.225 377.594C633.768 376.567 633.107 375.768 632.24 375.198C631.395 374.605 630.448 374.308 629.399 374.308C628.372 374.308 627.55 374.57 626.934 375.095C626.318 375.62 626.01 376.282 626.01 377.08C626.01 377.697 626.17 378.187 626.489 378.552C626.809 378.917 627.174 379.191 627.584 379.374C628.018 379.556 628.395 379.693 628.714 379.785L631.76 380.675C633.244 381.108 634.396 381.781 635.218 382.694C636.062 383.607 636.484 384.679 636.484 385.912C636.484 386.916 636.199 387.817 635.628 388.616C635.081 389.414 634.316 390.042 633.335 390.498C632.354 390.932 631.224 391.149 629.946 391.149ZM646.811 390.738V372.391H649.378V390.738H646.811ZM646.811 369.002V365.237H649.378V369.002H646.811ZM654.633 390.738V372.391H657.2V375.951L656.618 375.814C657.075 374.627 657.816 373.692 658.843 373.007C659.893 372.323 661.102 371.98 662.472 371.98C663.772 371.98 664.936 372.277 665.963 372.87C667.013 373.464 667.834 374.285 668.427 375.335C669.044 376.362 669.352 377.525 669.352 378.826V390.738H666.784V379.819C666.784 378.701 666.579 377.754 666.168 376.978C665.78 376.202 665.221 375.609 664.491 375.198C663.784 374.764 662.962 374.548 662.027 374.548C661.091 374.548 660.258 374.764 659.528 375.198C658.798 375.609 658.227 376.213 657.816 377.012C657.406 377.788 657.2 378.723 657.2 379.819V390.738H654.633ZM681.272 390.943C679.629 390.943 678.362 390.464 677.472 389.506C676.582 388.547 676.137 387.178 676.137 385.398V374.958H672.749V372.391H673.604C674.38 372.391 674.996 372.14 675.453 371.638C675.909 371.113 676.137 370.463 676.137 369.687V368.147H678.704V372.391H682.744V374.958H678.704V385.398C678.704 386.014 678.796 386.562 678.978 387.041C679.161 387.498 679.469 387.863 679.903 388.136C680.359 388.41 680.964 388.547 681.717 388.547C681.899 388.547 682.116 388.536 682.367 388.513C682.618 388.49 682.835 388.467 683.017 388.445V390.738C682.744 390.806 682.435 390.852 682.093 390.875C681.751 390.92 681.477 390.943 681.272 390.943ZM695.448 391.149C693.714 391.149 692.139 390.738 690.725 389.916C689.31 389.072 688.18 387.931 687.336 386.493C686.514 385.033 686.104 383.379 686.104 381.53C686.104 379.705 686.514 378.073 687.336 376.635C688.157 375.198 689.264 374.068 690.656 373.247C692.071 372.402 693.668 371.98 695.448 371.98C697.228 371.98 698.814 372.391 700.206 373.213C701.621 374.034 702.727 375.164 703.526 376.601C704.348 378.039 704.758 379.682 704.758 381.53C704.758 383.401 704.336 385.067 703.492 386.528C702.648 387.965 701.518 389.095 700.103 389.916C698.711 390.738 697.16 391.149 695.448 391.149ZM695.448 388.581C696.68 388.581 697.787 388.273 698.768 387.657C699.772 387.041 700.56 386.197 701.13 385.124C701.723 384.052 702.02 382.854 702.02 381.53C702.02 380.207 701.723 379.02 701.13 377.97C700.56 376.921 699.772 376.088 698.768 375.472C697.787 374.856 696.68 374.548 695.448 374.548C694.216 374.548 693.098 374.856 692.094 375.472C691.112 376.088 690.325 376.921 689.732 377.97C689.139 379.02 688.842 380.207 688.842 381.53C688.842 382.854 689.139 384.052 689.732 385.124C690.325 386.197 691.112 387.041 692.094 387.657C693.098 388.273 694.216 388.581 695.448 388.581ZM715.479 390.738V365.237H718.217V390.738H715.479ZM723.86 390.738V372.391H726.427V375.882L726.017 375.369C726.519 374.296 727.26 373.464 728.241 372.87C729.246 372.277 730.341 371.98 731.527 371.98C732.942 371.98 734.22 372.38 735.361 373.178C736.502 373.977 737.312 375.015 737.791 376.293L737.073 376.327C737.529 374.913 738.316 373.84 739.434 373.11C740.575 372.357 741.83 371.98 743.2 371.98C744.432 371.98 745.561 372.277 746.588 372.87C747.638 373.464 748.471 374.285 749.087 375.335C749.726 376.362 750.045 377.525 750.045 378.826V390.738H747.478V379.819C747.478 378.701 747.273 377.754 746.862 376.978C746.474 376.202 745.938 375.609 745.253 375.198C744.569 374.764 743.781 374.548 742.891 374.548C742.024 374.548 741.237 374.764 740.53 375.198C739.822 375.609 739.263 376.213 738.852 377.012C738.442 377.788 738.236 378.723 738.236 379.819V390.738H735.669V379.819C735.669 378.701 735.464 377.754 735.053 376.978C734.665 376.202 734.129 375.609 733.444 375.198C732.76 374.764 731.972 374.548 731.082 374.548C730.193 374.548 729.394 374.764 728.686 375.198C728.002 375.609 727.454 376.213 727.043 377.012C726.633 377.788 726.427 378.723 726.427 379.819V390.738H723.86ZM754.947 397.584V372.391H757.514V376.499L757.104 375.78C757.834 374.616 758.804 373.692 760.013 373.007C761.245 372.323 762.649 371.98 764.223 371.98C765.957 371.98 767.498 372.402 768.844 373.247C770.213 374.068 771.286 375.198 772.062 376.635C772.86 378.073 773.26 379.716 773.26 381.564C773.26 383.39 772.86 385.033 772.062 386.493C771.286 387.931 770.213 389.072 768.844 389.916C767.498 390.738 765.957 391.149 764.223 391.149C762.649 391.149 761.222 390.795 759.945 390.088C758.689 389.357 757.742 388.33 757.104 387.007L757.514 386.63V397.584H754.947ZM764.086 388.581C765.318 388.581 766.414 388.273 767.372 387.657C768.353 387.041 769.118 386.208 769.666 385.159C770.236 384.086 770.521 382.888 770.521 381.564C770.521 380.218 770.236 379.02 769.666 377.97C769.118 376.921 768.353 376.088 767.372 375.472C766.414 374.856 765.318 374.548 764.086 374.548C762.854 374.548 761.736 374.856 760.732 375.472C759.751 376.088 758.963 376.932 758.37 378.005C757.799 379.054 757.514 380.241 757.514 381.564C757.514 382.888 757.799 384.086 758.37 385.159C758.963 386.208 759.751 387.041 760.732 387.657C761.736 388.273 762.854 388.581 764.086 388.581ZM783.083 391.149C781.919 391.149 780.881 390.932 779.968 390.498C779.055 390.042 778.337 389.426 777.812 388.65C777.287 387.874 777.025 386.984 777.025 385.98C777.025 385.022 777.23 384.154 777.641 383.379C778.051 382.58 778.69 381.907 779.557 381.359C780.425 380.811 781.531 380.423 782.878 380.195L790.066 378.997V381.325L783.494 382.42C782.17 382.648 781.212 383.071 780.619 383.687C780.048 384.303 779.763 385.033 779.763 385.877C779.763 386.699 780.082 387.395 780.721 387.965C781.383 388.536 782.227 388.821 783.254 388.821C784.509 388.821 785.605 388.559 786.54 388.034C787.476 387.486 788.206 386.756 788.731 385.843C789.256 384.93 789.518 383.915 789.518 382.797V378.142C789.518 377.046 789.119 376.156 788.32 375.472C787.521 374.787 786.483 374.445 785.205 374.445C784.087 374.445 783.106 374.73 782.262 375.301C781.417 375.848 780.79 376.567 780.379 377.457L778.051 376.19C778.394 375.415 778.93 374.707 779.66 374.068C780.413 373.429 781.269 372.927 782.227 372.562C783.186 372.174 784.178 371.98 785.205 371.98C786.552 371.98 787.738 372.243 788.765 372.768C789.815 373.292 790.625 374.023 791.195 374.958C791.789 375.871 792.085 376.932 792.085 378.142V390.738H789.518V387.075L789.895 387.452C789.575 388.136 789.073 388.764 788.389 389.334C787.727 389.882 786.94 390.327 786.027 390.669C785.137 390.989 784.156 391.149 783.083 391.149ZM805.752 391.149C803.949 391.149 802.363 390.726 800.994 389.882C799.625 389.038 798.552 387.897 797.776 386.459C797.001 384.999 796.613 383.356 796.613 381.53C796.613 379.705 797.001 378.073 797.776 376.635C798.552 375.198 799.625 374.068 800.994 373.247C802.363 372.402 803.949 371.98 805.752 371.98C806.893 371.98 807.965 372.186 808.969 372.596C809.973 373.007 810.863 373.566 811.639 374.274C812.415 374.958 812.997 375.757 813.385 376.67L811.057 377.868C810.601 376.886 809.905 376.088 808.969 375.472C808.034 374.856 806.961 374.548 805.752 374.548C804.542 374.548 803.447 374.856 802.466 375.472C801.507 376.065 800.743 376.898 800.172 377.97C799.625 379.02 799.351 380.218 799.351 381.564C799.351 382.888 799.625 384.086 800.172 385.159C800.743 386.208 801.507 387.041 802.466 387.657C803.447 388.273 804.542 388.581 805.752 388.581C806.961 388.581 808.022 388.273 808.935 387.657C809.871 387.041 810.578 386.22 811.057 385.193L813.385 386.459C812.997 387.349 812.415 388.148 811.639 388.855C810.863 389.563 809.973 390.122 808.969 390.532C807.965 390.943 806.893 391.149 805.752 391.149ZM824.907 390.943C823.264 390.943 821.997 390.464 821.107 389.506C820.217 388.547 819.772 387.178 819.772 385.398V374.958H816.384V372.391H817.239C818.015 372.391 818.631 372.14 819.088 371.638C819.544 371.113 819.772 370.463 819.772 369.687V368.147H822.34V372.391H826.379V374.958H822.34V385.398C822.34 386.014 822.431 386.562 822.613 387.041C822.796 387.498 823.104 387.863 823.538 388.136C823.994 388.41 824.599 388.547 825.352 388.547C825.534 388.547 825.751 388.536 826.002 388.513C826.253 388.49 826.47 388.467 826.652 388.445V390.738C826.379 390.806 826.071 390.852 825.728 390.875C825.386 390.92 825.112 390.943 824.907 390.943ZM833.043 390.738V374.958H829.38V372.391H833.043V370.748C833.043 369.47 833.328 368.398 833.899 367.531C834.469 366.641 835.222 365.967 836.158 365.511C837.093 365.055 838.097 364.826 839.17 364.826C839.398 364.826 839.66 364.849 839.957 364.895C840.254 364.918 840.493 364.952 840.676 364.998V367.325C840.516 367.28 840.299 367.257 840.026 367.257C839.752 367.234 839.558 367.222 839.444 367.222C838.348 367.222 837.436 367.485 836.705 368.01C835.975 368.535 835.61 369.447 835.61 370.748V372.391H840.094V374.958H835.61V390.738H833.043ZM851.101 391.149C849.823 391.149 848.66 390.852 847.61 390.259C846.56 389.643 845.727 388.798 845.111 387.726C844.518 386.63 844.221 385.375 844.221 383.96V372.391H846.788V383.652C846.788 384.634 846.982 385.501 847.37 386.254C847.781 386.984 848.34 387.555 849.048 387.965C849.778 388.376 850.611 388.581 851.546 388.581C852.482 388.581 853.315 388.376 854.045 387.965C854.775 387.532 855.346 386.927 855.757 386.151C856.167 385.352 856.373 384.405 856.373 383.31V372.391H858.94V390.738H856.373V387.178L856.955 387.315C856.521 388.502 855.779 389.437 854.73 390.122C853.68 390.806 852.471 391.149 851.101 391.149ZM864.219 390.738V364.826H866.787V390.738H864.219ZM886.826 391.149C885.205 391.149 883.733 390.841 882.41 390.224C881.086 389.608 879.968 388.787 879.056 387.76C878.143 386.71 877.492 385.558 877.104 384.303L879.569 383.379C880.162 385.113 881.086 386.436 882.342 387.349C883.597 388.239 885.091 388.684 886.826 388.684C887.921 388.684 888.879 388.513 889.701 388.171C890.545 387.806 891.195 387.304 891.652 386.665C892.108 386.026 892.336 385.284 892.336 384.44C892.336 383.185 891.994 382.215 891.31 381.53C890.625 380.846 889.644 380.321 888.366 379.956L883.779 378.587C881.976 378.062 880.584 377.183 879.603 375.951C878.645 374.719 878.166 373.315 878.166 371.741C878.166 370.394 878.496 369.208 879.158 368.181C879.82 367.131 880.721 366.31 881.862 365.716C883.026 365.123 884.338 364.826 885.799 364.826C887.328 364.826 888.697 365.112 889.906 365.682C891.138 366.23 892.177 366.96 893.021 367.873C893.865 368.786 894.47 369.801 894.835 370.919L892.439 371.878C891.891 370.372 891.036 369.231 889.872 368.455C888.731 367.679 887.385 367.291 885.833 367.291C884.852 367.291 883.985 367.462 883.231 367.804C882.501 368.147 881.931 368.637 881.52 369.276C881.109 369.915 880.904 370.668 880.904 371.535C880.904 372.585 881.235 373.532 881.897 374.376C882.558 375.198 883.574 375.814 884.943 376.225L888.982 377.423C890.99 378.016 892.508 378.872 893.534 379.99C894.561 381.108 895.075 382.511 895.075 384.2C895.075 385.569 894.721 386.779 894.014 387.828C893.329 388.855 892.359 389.665 891.104 390.259C889.872 390.852 888.446 391.149 886.826 391.149ZM908.578 391.149C906.843 391.149 905.269 390.738 903.854 389.916C902.439 389.072 901.31 387.931 900.465 386.493C899.644 385.033 899.233 383.379 899.233 381.53C899.233 379.705 899.644 378.073 900.465 376.635C901.287 375.198 902.394 374.068 903.785 373.247C905.2 372.402 906.798 371.98 908.578 371.98C910.357 371.98 911.943 372.391 913.335 373.213C914.75 374.034 915.857 375.164 916.656 376.601C917.477 378.039 917.888 379.682 917.888 381.53C917.888 383.401 917.466 385.067 916.621 386.528C915.777 387.965 914.648 389.095 913.233 389.916C911.841 390.738 910.289 391.149 908.578 391.149ZM908.578 388.581C909.81 388.581 910.917 388.273 911.898 387.657C912.902 387.041 913.689 386.197 914.26 385.124C914.853 384.052 915.15 382.854 915.15 381.53C915.15 380.207 914.853 379.02 914.26 377.97C913.689 376.921 912.902 376.088 911.898 375.472C910.917 374.856 909.81 374.548 908.578 374.548C907.345 374.548 906.227 374.856 905.223 375.472C904.242 376.088 903.455 376.921 902.861 377.97C902.268 379.02 901.971 380.207 901.971 381.53C901.971 382.854 902.268 384.052 902.861 385.124C903.455 386.197 904.242 387.041 905.223 387.657C906.227 388.273 907.345 388.581 908.578 388.581ZM923.63 390.738V374.958H919.967V372.391H923.63V370.748C923.63 369.47 923.915 368.398 924.485 367.531C925.056 366.641 925.809 365.967 926.744 365.511C927.68 365.055 928.684 364.826 929.757 364.826C929.985 364.826 930.247 364.849 930.544 364.895C930.84 364.918 931.08 364.952 931.263 364.998V367.325C931.103 367.28 930.886 367.257 930.612 367.257C930.338 367.234 930.144 367.222 930.03 367.222C928.935 367.222 928.022 367.485 927.292 368.01C926.562 368.535 926.197 369.447 926.197 370.748V372.391H930.681V374.958H926.197V390.738H923.63ZM942.536 390.943C940.893 390.943 939.626 390.464 938.736 389.506C937.846 388.547 937.401 387.178 937.401 385.398V374.958H934.013V372.391H934.868C935.644 372.391 936.26 372.14 936.717 371.638C937.173 371.113 937.401 370.463 937.401 369.687V368.147H939.969V372.391H944.008V374.958H939.969V385.398C939.969 386.014 940.06 386.562 940.242 387.041C940.425 387.498 940.733 387.863 941.167 388.136C941.623 388.41 942.228 388.547 942.981 388.547C943.163 388.547 943.38 388.536 943.631 388.513C943.882 388.49 944.099 388.467 944.281 388.445V390.738C944.008 390.806 943.7 390.852 943.357 390.875C943.015 390.92 942.741 390.943 942.536 390.943ZM952.828 390.738L946.53 372.391H949.44L954.642 388.445H953.616L958.51 372.391H961.078L965.972 388.445H964.945L970.182 372.391H973.058L966.76 390.738H964.192L959.435 375.027H960.153L955.395 390.738H952.828ZM980.703 391.149C979.539 391.149 978.5 390.932 977.588 390.498C976.675 390.042 975.956 389.426 975.431 388.65C974.906 387.874 974.644 386.984 974.644 385.98C974.644 385.022 974.849 384.154 975.26 383.379C975.671 382.58 976.31 381.907 977.177 381.359C978.044 380.811 979.151 380.423 980.497 380.195L987.685 378.997V381.325L981.113 382.42C979.79 382.648 978.831 383.071 978.238 383.687C977.668 384.303 977.382 385.033 977.382 385.877C977.382 386.699 977.702 387.395 978.341 387.965C979.003 388.536 979.847 388.821 980.874 388.821C982.129 388.821 983.224 388.559 984.16 388.034C985.095 387.486 985.826 386.756 986.35 385.843C986.875 384.93 987.138 383.915 987.138 382.797V378.142C987.138 377.046 986.738 376.156 985.94 375.472C985.141 374.787 984.103 374.445 982.825 374.445C981.707 374.445 980.725 374.73 979.881 375.301C979.037 375.848 978.409 376.567 977.998 377.457L975.671 376.19C976.013 375.415 976.549 374.707 977.28 374.068C978.033 373.429 978.888 372.927 979.847 372.562C980.805 372.174 981.798 371.98 982.825 371.98C984.171 371.98 985.358 372.243 986.385 372.768C987.434 373.292 988.244 374.023 988.815 374.958C989.408 375.871 989.705 376.932 989.705 378.142V390.738H987.138V387.075L987.514 387.452C987.195 388.136 986.693 388.764 986.008 389.334C985.346 389.882 984.559 390.327 983.646 390.669C982.756 390.989 981.775 391.149 980.703 391.149ZM994.985 390.738V372.391H997.552V375.403L997.21 374.958C997.644 374.091 998.294 373.407 999.161 372.905C1000.05 372.402 1001.12 372.151 1002.38 372.151H1003.54V374.719H1001.93C1000.61 374.719 999.549 375.129 998.75 375.951C997.952 376.772 997.552 377.936 997.552 379.442V390.738H994.985ZM1014.9 391.149C1013.19 391.149 1011.64 390.738 1010.25 389.916C1008.88 389.072 1007.79 387.92 1007 386.459C1006.2 384.999 1005.8 383.344 1005.8 381.496C1005.8 379.648 1006.19 378.016 1006.96 376.601C1007.74 375.164 1008.79 374.034 1010.11 373.213C1011.46 372.391 1012.96 371.98 1014.63 371.98C1015.95 371.98 1017.13 372.231 1018.15 372.733C1019.2 373.213 1020.09 373.874 1020.82 374.719C1021.55 375.54 1022.11 376.476 1022.5 377.525C1022.89 378.552 1023.08 379.613 1023.08 380.709C1023.08 380.937 1023.07 381.199 1023.05 381.496C1023.03 381.77 1022.99 382.055 1022.95 382.352H1007.44V379.956H1021.47L1020.24 380.983C1020.45 379.728 1020.3 378.609 1019.8 377.628C1019.32 376.624 1018.62 375.837 1017.71 375.266C1016.8 374.673 1015.77 374.376 1014.63 374.376C1013.49 374.376 1012.43 374.673 1011.45 375.266C1010.49 375.86 1009.73 376.693 1009.19 377.765C1008.64 378.815 1008.42 380.07 1008.54 381.53C1008.42 382.991 1008.65 384.269 1009.22 385.364C1009.81 386.436 1010.61 387.269 1011.62 387.863C1012.64 388.456 1013.74 388.753 1014.9 388.753C1016.25 388.753 1017.38 388.433 1018.29 387.794C1019.2 387.155 1019.95 386.357 1020.52 385.398L1022.71 386.562C1022.34 387.383 1021.78 388.148 1021.03 388.855C1020.28 389.54 1019.38 390.099 1018.33 390.532C1017.3 390.943 1016.16 391.149 1014.9 391.149ZM1039.83 391.149C1038.46 391.149 1037.24 390.886 1036.16 390.361C1035.09 389.836 1034.25 389.095 1033.63 388.136C1033.02 387.178 1032.71 386.06 1032.71 384.782C1032.71 383.687 1032.91 382.717 1033.32 381.873C1033.73 381.028 1034.24 380.298 1034.83 379.682C1035.45 379.043 1036.06 378.507 1036.68 378.073C1037.32 377.64 1037.85 377.286 1038.29 377.012L1040.07 375.917C1040.71 375.529 1041.33 375.095 1041.95 374.616C1042.59 374.114 1043.11 373.543 1043.52 372.905C1043.96 372.243 1044.17 371.513 1044.17 370.714C1044.17 369.755 1043.85 368.957 1043.22 368.318C1042.58 367.679 1041.78 367.359 1040.82 367.359C1039.84 367.359 1039.03 367.679 1038.39 368.318C1037.77 368.957 1037.47 369.767 1037.47 370.748C1037.47 371.387 1037.61 372.015 1037.91 372.631C1038.23 373.247 1038.62 373.84 1039.07 374.411C1039.55 374.958 1040.04 375.495 1040.55 376.019L1054.58 390.738H1050.92L1038.39 377.799C1037.84 377.229 1037.28 376.601 1036.71 375.917C1036.16 375.209 1035.7 374.445 1035.31 373.623C1034.92 372.779 1034.73 371.855 1034.73 370.851C1034.73 369.664 1035 368.626 1035.55 367.736C1036.1 366.823 1036.83 366.116 1037.74 365.614C1038.67 365.089 1039.7 364.826 1040.82 364.826C1041.91 364.826 1042.92 365.077 1043.83 365.579C1044.74 366.082 1045.47 366.778 1046.02 367.667C1046.57 368.557 1046.84 369.573 1046.84 370.714C1046.84 371.923 1046.56 372.984 1045.99 373.897C1045.44 374.787 1044.77 375.552 1043.97 376.19C1043.17 376.829 1042.43 377.366 1041.74 377.799L1040.03 378.86C1039.42 379.248 1038.77 379.716 1038.08 380.264C1037.4 380.789 1036.81 381.416 1036.34 382.146C1035.86 382.854 1035.62 383.709 1035.62 384.714C1035.62 385.946 1036.02 386.904 1036.81 387.589C1037.61 388.273 1038.64 388.616 1039.9 388.616C1040.72 388.616 1041.45 388.479 1042.09 388.205C1042.72 387.931 1043.3 387.577 1043.8 387.144C1044.3 386.687 1044.76 386.185 1045.17 385.638C1045.58 385.067 1045.97 384.508 1046.33 383.96L1050.27 378.107H1053.38L1048.79 385.09C1048.43 385.661 1047.98 386.299 1047.46 387.007C1046.94 387.691 1046.32 388.353 1045.61 388.992C1044.9 389.608 1044.07 390.122 1043.11 390.532C1042.18 390.943 1041.08 391.149 1039.83 391.149ZM1064.76 390.738V365.237H1073.14C1075.67 365.237 1077.88 365.762 1079.75 366.812C1081.62 367.839 1083.07 369.31 1084.1 371.227C1085.12 373.121 1085.64 375.369 1085.64 377.97C1085.64 380.549 1085.12 382.797 1084.1 384.714C1083.07 386.63 1081.62 388.114 1079.75 389.163C1077.88 390.213 1075.67 390.738 1073.14 390.738H1064.76ZM1067.49 388.171H1073.14C1075.1 388.171 1076.8 387.76 1078.24 386.938C1079.68 386.094 1080.79 384.908 1081.56 383.379C1082.36 381.85 1082.76 380.047 1082.76 377.97C1082.76 375.894 1082.36 374.103 1081.56 372.596C1080.76 371.068 1079.65 369.892 1078.21 369.071C1076.77 368.227 1075.08 367.804 1073.14 367.804H1067.49V388.171ZM1094.75 391.149C1093.59 391.149 1092.55 390.932 1091.64 390.498C1090.73 390.042 1090.01 389.426 1089.48 388.65C1088.96 387.874 1088.7 386.984 1088.7 385.98C1088.7 385.022 1088.9 384.154 1089.31 383.379C1089.72 382.58 1090.36 381.907 1091.23 381.359C1092.1 380.811 1093.2 380.423 1094.55 380.195L1101.74 378.997V381.325L1095.17 382.42C1093.84 382.648 1092.88 383.071 1092.29 383.687C1091.72 384.303 1091.43 385.033 1091.43 385.877C1091.43 386.699 1091.75 387.395 1092.39 387.965C1093.05 388.536 1093.9 388.821 1094.93 388.821C1096.18 388.821 1097.28 388.559 1098.21 388.034C1099.15 387.486 1099.88 386.756 1100.4 385.843C1100.93 384.93 1101.19 383.915 1101.19 382.797V378.142C1101.19 377.046 1100.79 376.156 1099.99 375.472C1099.19 374.787 1098.15 374.445 1096.88 374.445C1095.76 374.445 1094.78 374.73 1093.93 375.301C1093.09 375.848 1092.46 376.567 1092.05 377.457L1089.72 376.19C1090.07 375.415 1090.6 374.707 1091.33 374.068C1092.08 373.429 1092.94 372.927 1093.9 372.562C1094.86 372.174 1095.85 371.98 1096.88 371.98C1098.22 371.98 1099.41 372.243 1100.44 372.768C1101.49 373.292 1102.3 374.023 1102.87 374.958C1103.46 375.871 1103.76 376.932 1103.76 378.142V390.738H1101.19V387.075L1101.57 387.452C1101.25 388.136 1100.74 388.764 1100.06 389.334C1099.4 389.882 1098.61 390.327 1097.7 390.669C1096.81 390.989 1095.83 391.149 1094.75 391.149ZM1115.72 390.943C1114.08 390.943 1112.81 390.464 1111.92 389.506C1111.03 388.547 1110.59 387.178 1110.59 385.398V374.958H1107.2V372.391H1108.05C1108.83 372.391 1109.44 372.14 1109.9 371.638C1110.36 371.113 1110.59 370.463 1110.59 369.687V368.147H1113.15V372.391H1117.19V374.958H1113.15V385.398C1113.15 386.014 1113.24 386.562 1113.43 387.041C1113.61 387.498 1113.92 387.863 1114.35 388.136C1114.81 388.41 1115.41 388.547 1116.17 388.547C1116.35 388.547 1116.56 388.536 1116.82 388.513C1117.07 388.49 1117.28 388.467 1117.47 388.445V390.738C1117.19 390.806 1116.88 390.852 1116.54 390.875C1116.2 390.92 1115.93 390.943 1115.72 390.943ZM1126.94 391.149C1125.78 391.149 1124.74 390.932 1123.83 390.498C1122.92 390.042 1122.2 389.426 1121.67 388.65C1121.15 387.874 1120.89 386.984 1120.89 385.98C1120.89 385.022 1121.09 384.154 1121.5 383.379C1121.91 382.58 1122.55 381.907 1123.42 381.359C1124.29 380.811 1125.39 380.423 1126.74 380.195L1133.93 378.997V381.325L1127.36 382.42C1126.03 382.648 1125.07 383.071 1124.48 383.687C1123.91 384.303 1123.62 385.033 1123.62 385.877C1123.62 386.699 1123.94 387.395 1124.58 387.965C1125.24 388.536 1126.09 388.821 1127.12 388.821C1128.37 388.821 1129.47 388.559 1130.4 388.034C1131.34 387.486 1132.07 386.756 1132.59 385.843C1133.12 384.93 1133.38 383.915 1133.38 382.797V378.142C1133.38 377.046 1132.98 376.156 1132.18 375.472C1131.38 374.787 1130.34 374.445 1129.07 374.445C1127.95 374.445 1126.97 374.73 1126.12 375.301C1125.28 375.848 1124.65 376.567 1124.24 377.457L1121.91 376.19C1122.26 375.415 1122.79 374.707 1123.52 374.068C1124.28 373.429 1125.13 372.927 1126.09 372.562C1127.05 372.174 1128.04 371.98 1129.07 371.98C1130.41 371.98 1131.6 372.243 1132.63 372.768C1133.68 373.292 1134.49 374.023 1135.06 374.958C1135.65 375.871 1135.95 376.932 1135.95 378.142V390.738H1133.38V387.075L1133.76 387.452C1133.44 388.136 1132.93 388.764 1132.25 389.334C1131.59 389.882 1130.8 390.327 1129.89 390.669C1129 390.989 1128.02 391.149 1126.94 391.149ZM717.702 432.149C716.082 432.149 714.61 431.841 713.287 431.224C711.963 430.608 710.845 429.787 709.932 428.76C709.02 427.71 708.369 426.558 707.981 425.303L710.446 424.379C711.039 426.113 711.963 427.436 713.218 428.349C714.474 429.239 715.968 429.684 717.702 429.684C718.798 429.684 719.756 429.513 720.578 429.171C721.422 428.806 722.072 428.304 722.529 427.665C722.985 427.026 723.213 426.284 723.213 425.44C723.213 424.185 722.871 423.215 722.186 422.53C721.502 421.846 720.521 421.321 719.243 420.956L714.656 419.587C712.853 419.062 711.461 418.183 710.48 416.951C709.522 415.719 709.043 414.315 709.043 412.741C709.043 411.394 709.373 410.208 710.035 409.181C710.697 408.131 711.598 407.31 712.739 406.716C713.903 406.123 715.215 405.826 716.676 405.826C718.204 405.826 719.574 406.112 720.783 406.682C722.015 407.23 723.054 407.96 723.898 408.873C724.742 409.786 725.347 410.801 725.712 411.919L723.316 412.878C722.768 411.372 721.913 410.231 720.749 409.455C719.608 408.679 718.262 408.291 716.71 408.291C715.729 408.291 714.861 408.462 714.108 408.804C713.378 409.147 712.808 409.637 712.397 410.276C711.986 410.915 711.781 411.668 711.781 412.535C711.781 413.585 712.112 414.532 712.773 415.376C713.435 416.198 714.451 416.814 715.82 417.225L719.859 418.423C721.867 419.016 723.384 419.872 724.411 420.99C725.438 422.108 725.952 423.511 725.952 425.2C725.952 426.569 725.598 427.779 724.891 428.828C724.206 429.855 723.236 430.665 721.981 431.259C720.749 431.852 719.323 432.149 717.702 432.149ZM739.455 432.149C737.72 432.149 736.146 431.738 734.731 430.916C733.316 430.072 732.187 428.931 731.342 427.493C730.521 426.033 730.11 424.379 730.11 422.53C730.11 420.705 730.521 419.073 731.342 417.635C732.164 416.198 733.27 415.068 734.662 414.247C736.077 413.402 737.675 412.98 739.455 412.98C741.234 412.98 742.82 413.391 744.212 414.213C745.627 415.034 746.734 416.164 747.533 417.601C748.354 419.039 748.765 420.682 748.765 422.53C748.765 424.401 748.343 426.067 747.498 427.528C746.654 428.965 745.524 430.095 744.11 430.916C742.718 431.738 741.166 432.149 739.455 432.149ZM739.455 429.581C740.687 429.581 741.794 429.273 742.775 428.657C743.779 428.041 744.566 427.197 745.137 426.124C745.73 425.052 746.027 423.854 746.027 422.53C746.027 421.207 745.73 420.02 745.137 418.97C744.566 417.921 743.779 417.088 742.775 416.472C741.794 415.856 740.687 415.548 739.455 415.548C738.222 415.548 737.104 415.856 736.1 416.472C735.119 417.088 734.332 417.921 733.738 418.97C733.145 420.02 732.848 421.207 732.848 422.53C732.848 423.854 733.145 425.052 733.738 426.124C734.332 427.197 735.119 428.041 736.1 428.657C737.104 429.273 738.222 429.581 739.455 429.581ZM753.292 431.738V405.826H755.86V431.738H753.292ZM767.618 432.149C766.34 432.149 765.176 431.852 764.126 431.259C763.077 430.643 762.244 429.798 761.628 428.726C761.034 427.63 760.738 426.375 760.738 424.96V413.391H763.305V424.652C763.305 425.634 763.499 426.501 763.887 427.254C764.298 427.984 764.857 428.555 765.564 428.965C766.294 429.376 767.127 429.581 768.063 429.581C768.998 429.581 769.831 429.376 770.562 428.965C771.292 428.532 771.862 427.927 772.273 427.151C772.684 426.352 772.889 425.405 772.889 424.31V413.391H775.456V431.738H772.889V428.178L773.471 428.315C773.037 429.502 772.296 430.437 771.246 431.122C770.196 431.806 768.987 432.149 767.618 432.149ZM787.753 431.943C786.11 431.943 784.843 431.464 783.953 430.506C783.063 429.547 782.618 428.178 782.618 426.398V415.958H779.23V413.391H780.086C780.861 413.391 781.477 413.14 781.934 412.638C782.39 412.113 782.618 411.463 782.618 410.687V409.147H785.186V413.391H789.225V415.958H785.186V426.398C785.186 427.014 785.277 427.562 785.459 428.041C785.642 428.498 785.95 428.863 786.384 429.136C786.84 429.41 787.445 429.547 788.198 429.547C788.38 429.547 788.597 429.536 788.848 429.513C789.099 429.49 789.316 429.467 789.499 429.445V431.738C789.225 431.806 788.917 431.852 788.574 431.875C788.232 431.92 787.958 431.943 787.753 431.943ZM794.006 431.738V413.391H796.573V431.738H794.006ZM794.006 410.002V406.237H796.573V410.002H794.006ZM810.42 432.149C808.685 432.149 807.111 431.738 805.696 430.916C804.281 430.072 803.152 428.931 802.307 427.493C801.486 426.033 801.075 424.379 801.075 422.53C801.075 420.705 801.486 419.073 802.307 417.635C803.129 416.198 804.236 415.068 805.628 414.247C807.042 413.402 808.64 412.98 810.42 412.98C812.2 412.98 813.786 413.391 815.178 414.213C816.592 415.034 817.699 416.164 818.498 417.601C819.319 419.039 819.73 420.682 819.73 422.53C819.73 424.401 819.308 426.067 818.464 427.528C817.619 428.965 816.49 430.095 815.075 430.916C813.683 431.738 812.131 432.149 810.42 432.149ZM810.42 429.581C811.652 429.581 812.759 429.273 813.74 428.657C814.744 428.041 815.531 427.197 816.102 426.124C816.695 425.052 816.992 423.854 816.992 422.53C816.992 421.207 816.695 420.02 816.102 418.97C815.531 417.921 814.744 417.088 813.74 416.472C812.759 415.856 811.652 415.548 810.42 415.548C809.187 415.548 808.069 415.856 807.065 416.472C806.084 417.088 805.297 417.921 804.703 418.97C804.11 420.02 803.813 421.207 803.813 422.53C803.813 423.854 804.11 425.052 804.703 426.124C805.297 427.197 806.084 428.041 807.065 428.657C808.069 429.273 809.187 429.581 810.42 429.581ZM824.258 431.738V413.391H826.825V416.951L826.243 416.814C826.699 415.627 827.441 414.692 828.468 414.007C829.517 413.323 830.727 412.98 832.096 412.98C833.397 412.98 834.561 413.277 835.587 413.87C836.637 414.464 837.459 415.285 838.052 416.335C838.668 417.362 838.976 418.525 838.976 419.826V431.738H836.409V420.819C836.409 419.701 836.204 418.754 835.793 417.978C835.405 417.202 834.846 416.609 834.116 416.198C833.408 415.764 832.587 415.548 831.651 415.548C830.715 415.548 829.883 415.764 829.152 416.198C828.422 416.609 827.852 417.213 827.441 418.012C827.03 418.788 826.825 419.723 826.825 420.819V431.738H824.258ZM850.246 432.149C848.489 432.149 846.948 431.704 845.625 430.814C844.301 429.924 843.343 428.714 842.75 427.185L844.906 426.159C845.431 427.277 846.161 428.167 847.097 428.828C848.055 429.49 849.105 429.821 850.246 429.821C851.341 429.821 852.265 429.559 853.018 429.034C853.771 428.486 854.148 427.779 854.148 426.912C854.148 426.273 853.965 425.771 853.6 425.405C853.235 425.018 852.813 424.721 852.334 424.516C851.854 424.31 851.432 424.162 851.067 424.071L848.432 423.318C846.743 422.838 845.522 422.165 844.769 421.298C844.016 420.431 843.64 419.427 843.64 418.286C843.64 417.213 843.913 416.278 844.461 415.479C845.009 414.68 845.75 414.064 846.686 413.631C847.621 413.197 848.66 412.98 849.801 412.98C851.352 412.98 852.756 413.391 854.011 414.213C855.289 415.011 856.19 416.129 856.715 417.567L854.524 418.594C854.068 417.567 853.406 416.768 852.539 416.198C851.695 415.605 850.748 415.308 849.698 415.308C848.671 415.308 847.85 415.57 847.234 416.095C846.617 416.62 846.309 417.282 846.309 418.08C846.309 418.697 846.469 419.187 846.789 419.552C847.108 419.917 847.473 420.191 847.884 420.374C848.317 420.556 848.694 420.693 849.013 420.785L852.06 421.675C853.543 422.108 854.695 422.781 855.517 423.694C856.361 424.607 856.783 425.679 856.783 426.912C856.783 427.916 856.498 428.817 855.928 429.616C855.38 430.414 854.616 431.042 853.634 431.498C852.653 431.932 851.524 432.149 850.246 432.149Z" fill="white"/>
<path d="M695.881 515.799C694.921 515.799 694.033 515.625 693.217 515.277C692.401 514.929 691.687 514.443 691.075 513.819C690.463 513.195 689.983 512.463 689.635 511.623C689.299 510.783 689.131 509.865 689.131 508.869C689.131 507.873 689.293 506.955 689.617 506.115C689.953 505.263 690.421 504.531 691.021 503.919C691.633 503.295 692.347 502.815 693.163 502.479C693.979 502.131 694.867 501.957 695.827 501.957C696.787 501.957 697.645 502.119 698.401 502.443C699.169 502.767 699.817 503.199 700.345 503.739C700.873 504.267 701.251 504.849 701.479 505.485L699.301 506.529C699.049 505.833 698.623 505.269 698.023 504.837C697.423 504.405 696.691 504.189 695.827 504.189C694.987 504.189 694.243 504.387 693.595 504.783C692.959 505.179 692.461 505.725 692.101 506.421C691.753 507.117 691.579 507.933 691.579 508.869C691.579 509.805 691.759 510.627 692.119 511.335C692.491 512.031 693.001 512.577 693.649 512.973C694.297 513.369 695.041 513.567 695.881 513.567C696.565 513.567 697.195 513.435 697.771 513.171C698.347 512.895 698.809 512.511 699.157 512.019C699.505 511.515 699.679 510.921 699.679 510.237V509.211L700.795 510.183H695.827V508.113H702.127V509.463C702.127 510.495 701.953 511.407 701.605 512.199C701.257 512.991 700.783 513.657 700.183 514.197C699.595 514.725 698.929 515.127 698.185 515.403C697.441 515.667 696.673 515.799 695.881 515.799ZM708.51 515.799C707.502 515.799 706.62 515.571 705.864 515.115C705.108 514.659 704.52 514.041 704.1 513.261C703.68 512.481 703.47 511.617 703.47 510.669C703.47 509.685 703.68 508.815 704.1 508.059C704.532 507.291 705.114 506.685 705.846 506.241C706.59 505.797 707.418 505.575 708.33 505.575C709.098 505.575 709.77 505.701 710.346 505.953C710.934 506.205 711.432 506.553 711.84 506.997C712.248 507.441 712.56 507.951 712.776 508.527C712.992 509.091 713.1 509.703 713.1 510.363C713.1 510.531 713.088 510.705 713.064 510.885C713.052 511.065 713.022 511.221 712.974 511.353H705.414V509.553H711.642L710.526 510.399C710.634 509.847 710.604 509.355 710.436 508.923C710.28 508.491 710.016 508.149 709.644 507.897C709.284 507.645 708.846 507.519 708.33 507.519C707.838 507.519 707.4 507.645 707.016 507.897C706.632 508.137 706.338 508.497 706.134 508.977C705.942 509.445 705.87 510.015 705.918 510.687C705.87 511.287 705.948 511.821 706.152 512.289C706.368 512.745 706.68 513.099 707.088 513.351C707.508 513.603 707.988 513.729 708.528 513.729C709.068 513.729 709.524 513.615 709.896 513.387C710.28 513.159 710.58 512.853 710.796 512.469L712.704 513.405C712.512 513.873 712.212 514.287 711.804 514.647C711.396 515.007 710.91 515.289 710.346 515.493C709.794 515.697 709.182 515.799 708.51 515.799ZM719.351 515.691C718.247 515.691 717.389 515.391 716.777 514.791C716.177 514.179 715.877 513.321 715.877 512.217V507.897H714.185V505.791H714.365C714.845 505.791 715.217 505.665 715.481 505.413C715.745 505.161 715.877 504.795 715.877 504.315V503.559H718.235V505.791H720.485V507.897H718.235V512.091C718.235 512.415 718.289 512.691 718.397 512.919C718.517 513.147 718.697 513.321 718.937 513.441C719.189 513.561 719.507 513.621 719.891 513.621C719.975 513.621 720.071 513.615 720.179 513.603C720.299 513.591 720.413 513.579 720.521 513.567V515.583C720.353 515.607 720.161 515.631 719.945 515.655C719.729 515.679 719.531 515.691 719.351 515.691ZM725.72 515.583V502.173H728.168V515.583H725.72ZM730.55 515.583V505.791H732.764V507.717L732.584 507.375C732.812 506.787 733.184 506.343 733.7 506.043C734.228 505.731 734.84 505.575 735.536 505.575C736.256 505.575 736.892 505.731 737.444 506.043C738.008 506.355 738.446 506.793 738.758 507.357C739.07 507.909 739.226 508.551 739.226 509.283V515.583H736.868V509.841C736.868 509.409 736.784 509.037 736.616 508.725C736.448 508.413 736.214 508.173 735.914 508.005C735.626 507.825 735.284 507.735 734.888 507.735C734.504 507.735 734.162 507.825 733.862 508.005C733.562 508.173 733.328 508.413 733.16 508.725C732.992 509.037 732.908 509.409 732.908 509.841V515.583H730.55ZM746.993 515.583V504.333H743.519V502.173H752.879V504.333H749.459V515.583H746.993ZM757.697 515.799C756.737 515.799 755.861 515.577 755.069 515.133C754.289 514.689 753.665 514.083 753.197 513.315C752.741 512.547 752.513 511.671 752.513 510.687C752.513 509.703 752.741 508.827 753.197 508.059C753.665 507.291 754.289 506.685 755.069 506.241C755.849 505.797 756.725 505.575 757.697 505.575C758.657 505.575 759.527 505.797 760.307 506.241C761.087 506.685 761.705 507.291 762.161 508.059C762.629 508.815 762.863 509.691 762.863 510.687C762.863 511.671 762.629 512.547 762.161 513.315C761.693 514.083 761.069 514.689 760.289 515.133C759.509 515.577 758.645 515.799 757.697 515.799ZM757.697 513.639C758.225 513.639 758.687 513.513 759.083 513.261C759.491 513.009 759.809 512.661 760.037 512.217C760.277 511.761 760.397 511.251 760.397 510.687C760.397 510.111 760.277 509.607 760.037 509.175C759.809 508.731 759.491 508.383 759.083 508.131C758.687 507.867 758.225 507.735 757.697 507.735C757.157 507.735 756.683 507.867 756.275 508.131C755.867 508.383 755.543 508.731 755.303 509.175C755.075 509.607 754.961 510.111 754.961 510.687C754.961 511.251 755.075 511.761 755.303 512.217C755.543 512.661 755.867 513.009 756.275 513.261C756.683 513.513 757.157 513.639 757.697 513.639ZM768.143 515.799C767.387 515.799 766.727 515.631 766.163 515.295C765.611 514.959 765.185 514.491 764.885 513.891C764.597 513.291 764.453 512.589 764.453 511.785V505.791H766.811V511.587C766.811 511.995 766.889 512.355 767.045 512.667C767.213 512.967 767.447 513.207 767.747 513.387C768.059 513.555 768.407 513.639 768.791 513.639C769.175 513.639 769.517 513.555 769.817 513.387C770.117 513.207 770.351 512.961 770.519 512.649C770.687 512.337 770.771 511.965 770.771 511.533V505.791H773.129V515.583H770.897V513.657L771.095 513.999C770.867 514.599 770.489 515.049 769.961 515.349C769.445 515.649 768.839 515.799 768.143 515.799ZM780.037 515.799C779.065 515.799 778.189 515.577 777.409 515.133C776.641 514.677 776.035 514.065 775.591 513.297C775.147 512.517 774.925 511.641 774.925 510.669C774.925 509.697 775.147 508.827 775.591 508.059C776.035 507.291 776.641 506.685 777.409 506.241C778.189 505.797 779.065 505.575 780.037 505.575C780.733 505.575 781.381 505.701 781.981 505.953C782.581 506.193 783.097 506.529 783.529 506.961C783.973 507.381 784.291 507.885 784.483 508.473L782.413 509.373C782.233 508.881 781.927 508.485 781.495 508.185C781.075 507.885 780.589 507.735 780.037 507.735C779.521 507.735 779.059 507.861 778.651 508.113C778.255 508.365 777.943 508.713 777.715 509.157C777.487 509.601 777.373 510.111 777.373 510.687C777.373 511.263 777.487 511.773 777.715 512.217C777.943 512.661 778.255 513.009 778.651 513.261C779.059 513.513 779.521 513.639 780.037 513.639C780.601 513.639 781.093 513.489 781.513 513.189C781.933 512.889 782.233 512.487 782.413 511.983L784.483 512.919C784.291 513.471 783.979 513.969 783.547 514.413C783.115 514.845 782.599 515.187 781.999 515.439C781.399 515.679 780.745 515.799 780.037 515.799ZM786.272 515.583V501.957H788.63V507.717L788.306 507.375C788.534 506.787 788.906 506.343 789.422 506.043C789.95 505.731 790.562 505.575 791.258 505.575C791.978 505.575 792.614 505.731 793.166 506.043C793.73 506.355 794.168 506.793 794.48 507.357C794.792 507.909 794.948 508.551 794.948 509.283V515.583H792.59V509.841C792.59 509.409 792.506 509.037 792.338 508.725C792.17 508.413 791.936 508.173 791.636 508.005C791.348 507.825 791.006 507.735 790.61 507.735C790.226 507.735 789.884 507.825 789.584 508.005C789.284 508.173 789.05 508.413 788.882 508.725C788.714 509.037 788.63 509.409 788.63 509.841V515.583H786.272Z" fill="white"/>
<rect x="830.055" y="477.857" width="61.1233" height="61.1233" rx="30.5617" fill="#68D1DF"/>
<path d="M865.73 505.109L855.629 515.209L853.97 513.55L864.069 503.449H855.168V501.102H868.077V514.011H865.73V505.109Z" fill="#081E4D"/>
</g>
</svg>
