<svg width="16" height="17" viewBox="0 0 16 17" fill="none" xmlns="http://www.w3.org/2000/svg">
<mask id="mask0_60_495" style="mask-type:alpha" maskUnits="userSpaceOnUse" x="0" y="0" width="16" height="17">
<g clip-path="url(#clip0_60_495)">
<g clip-path="url(#clip1_60_495)">
<path d="M14.638 10.3503L9.8713 8.48745L14.6794 6.6246C14.9281 6.54181 15.0939 6.25203 15.0525 6.00365C14.9696 5.46549 14.7209 4.96873 14.4307 4.51337C14.182 4.01661 13.8504 3.60264 13.436 3.23007C13.2287 3.06449 12.9386 3.06449 12.7313 3.23007L8.71072 6.45901L9.53971 1.36723C9.62261 1.07745 9.45681 0.82907 9.20811 0.746277C8.71072 0.539294 8.13043 0.456501 7.59158 0.497898C7.05274 0.456501 6.47245 0.539294 5.97506 0.746277C5.72636 0.82907 5.56057 1.11885 5.64347 1.36723L6.47245 6.45901L2.45186 3.23007C2.24461 3.02309 1.95447 3.02309 1.74722 3.23007C1.33273 3.56125 1.00113 4.01661 0.752437 4.51337C0.420841 4.96873 0.213593 5.46549 0.0892453 6.00365C0.0477959 6.29343 0.213594 6.54181 0.46229 6.6246L5.18752 8.48745L0.379391 10.3503C0.130695 10.4331 -0.0351017 10.7229 0.00634775 10.9713C0.0892465 11.5094 0.296494 12.0062 0.628089 12.4615C0.876785 12.9583 1.20838 13.3723 1.62287 13.7448C1.83012 13.9104 2.12027 13.9104 2.32751 13.7448L6.3481 10.5159L5.51912 15.6077C5.43622 15.8975 5.60202 16.1458 5.85071 16.27C6.38955 16.4356 6.9284 16.5184 7.46724 16.477C8.00608 16.5184 8.58637 16.4356 9.08377 16.27C9.33246 16.1872 9.49826 15.8975 9.41536 15.6077L8.58637 10.5159L12.607 13.7448C12.8142 13.9104 13.1044 13.9104 13.3531 13.7448C13.7675 13.4137 14.0991 12.9997 14.3478 12.5029C14.6794 12.0476 14.8867 11.5508 15.011 11.0127C15.0525 10.6815 14.9281 10.4331 14.638 10.3503Z" fill="#BFF747"/>
</g>
</g>
</mask>
<g mask="url(#mask0_60_495)">
<rect y="0.48999" width="16" height="16" fill="#68D1DF"/>
</g>
<defs>
<clipPath id="clip0_60_495">
<rect width="16" height="16" fill="white" transform="translate(0 0.48999)"/>
</clipPath>
<clipPath id="clip1_60_495">
<rect width="16" height="16" fill="white" transform="translate(0 0.48999)"/>
</clipPath>
</defs>
</svg>
