<svg width="43" height="46" viewBox="0 0 43 46" fill="none" xmlns="http://www.w3.org/2000/svg">
<path d="M40.3533 10.156L23.7419 0.551229C23.1159 0.190337 22.406 0.000366211 21.6834 0.000366211C20.9608 0.000366211 20.2509 0.190337 19.6249 0.551229L3.01354 10.156C2.39811 10.5122 1.8868 11.0235 1.53059 11.639C1.17438 12.2544 0.985708 12.9525 0.983398 13.6635V32.3365C0.985708 33.0475 1.17438 33.7456 1.53059 34.361C1.8868 34.9765 2.39811 35.4878 3.01354 35.844L19.6249 45.4488C20.2509 45.8097 20.9608 45.9996 21.6834 45.9996C22.406 45.9996 23.1159 45.8097 23.7419 45.4488L40.3533 35.844C40.9687 35.4878 41.48 34.9765 41.8362 34.361C42.1924 33.7456 42.3811 33.0475 42.3834 32.3365V13.6635C42.3811 12.9525 42.1924 12.2544 41.8362 11.639C41.48 11.0235 40.9687 10.5122 40.3533 10.156ZM3.78174 11.4831L20.3931 1.8791C20.7856 1.65327 21.2305 1.53443 21.6834 1.53443C22.1362 1.53443 22.5812 1.65327 22.9737 1.8791L39.5851 11.4831C39.8745 11.6509 40.128 11.8742 40.331 12.1402L30.1298 18.0435L22.9231 13.4366C22.5531 13.2011 22.1235 13.076 21.6849 13.076C21.2463 13.076 20.8168 13.2011 20.4468 13.4366L13.2401 18.0435L3.03884 12.1402C3.24092 11.8745 3.49336 11.6512 3.78174 11.4831ZM21.6834 31.5483L14.6684 27.3401L21.2671 23.1173C21.391 23.0374 21.5352 22.9949 21.6826 22.9949C21.83 22.9949 21.9743 23.0374 22.0982 23.1173L28.6984 27.3409L21.6834 31.5483ZM29.3501 25.9363L22.9231 21.8239C22.5519 21.5894 22.1217 21.4649 21.6826 21.4649C21.2435 21.4649 20.8134 21.5894 20.4422 21.8239L14.0167 25.9363V19.3683L21.2702 14.7323C21.3935 14.6533 21.5369 14.6114 21.6834 14.6114C21.8299 14.6114 21.9733 14.6533 22.0966 14.7323L29.3501 19.3683V25.9363ZM3.78174 34.5169C3.39869 34.2957 3.08031 33.978 2.85834 33.5954C2.63638 33.2129 2.5186 32.7788 2.51674 32.3365V13.6635C2.51674 13.6467 2.51674 13.6298 2.51674 13.6129L12.4834 19.3821V26.5121C12.4846 26.9089 12.5879 27.2988 12.7834 27.6441C12.9789 27.9895 13.26 28.2787 13.5997 28.484L20.9167 32.877V44.3379C20.7347 44.2854 20.5591 44.2128 20.3931 44.1217L3.78174 34.5169ZM40.8501 32.3365C40.8482 32.7788 40.7304 33.2129 40.5085 33.5954C40.2865 33.978 39.9681 34.2957 39.5851 34.5169L22.9737 44.1209C22.8077 44.2121 22.632 44.2846 22.4501 44.3371V32.877L29.7671 28.487C30.1068 28.2818 30.3879 27.9926 30.5834 27.6472C30.7789 27.3019 30.8822 26.912 30.8834 26.5152V19.3852L40.8501 13.616C40.8501 13.6329 40.8501 13.6497 40.8501 13.6666V32.3365Z" fill="#68D1DF"/>
</svg>
