<svg width="42" height="46" viewBox="0 0 42 46" fill="none" xmlns="http://www.w3.org/2000/svg">
<path d="M39.7371 10.156L23.1257 0.551229C22.4997 0.190337 21.7898 0.000366211 21.0672 0.000366211C20.3446 0.000366211 19.6347 0.190337 19.0087 0.551229L2.39733 10.156C1.7819 10.5122 1.27059 11.0235 0.914377 11.639C0.558167 12.2544 0.369497 12.9525 0.367188 13.6635V32.3365C0.369497 33.0475 0.558167 33.7456 0.914377 34.361C1.27059 34.9765 1.7819 35.4878 2.39733 35.844L19.0087 45.4488C19.6347 45.8097 20.3446 45.9996 21.0672 45.9996C21.7898 45.9996 22.4997 45.8097 23.1257 45.4488L39.7371 35.844C40.3525 35.4878 40.8638 34.9765 41.22 34.361C41.5762 33.7456 41.7649 33.0475 41.7672 32.3365V13.6635C41.7649 12.9525 41.5762 12.2544 41.22 11.639C40.8638 11.0235 40.3525 10.5122 39.7371 10.156ZM3.16553 11.4831L19.7769 1.8791C20.1694 1.65327 20.6143 1.53443 21.0672 1.53443C21.52 1.53443 21.965 1.65327 22.3575 1.8791L38.9689 11.4831C39.2583 11.6509 39.5118 11.8742 39.7148 12.1402L29.5136 18.0435L22.3069 13.4366C21.9369 13.2011 21.5073 13.076 21.0687 13.076C20.6301 13.076 20.2006 13.2011 19.8306 13.4366L12.6239 18.0435L2.42263 12.1402C2.62471 11.8745 2.87715 11.6512 3.16553 11.4831ZM21.0672 31.5483L14.0522 27.3401L20.6509 23.1173C20.7748 23.0374 20.919 22.9949 21.0664 22.9949C21.2138 22.9949 21.3581 23.0374 21.482 23.1173L28.0822 27.3409L21.0672 31.5483ZM28.7339 25.9363L22.3069 21.8239C21.9357 21.5894 21.5055 21.4649 21.0664 21.4649C20.6273 21.4649 20.1972 21.5894 19.826 21.8239L13.4005 25.9363V19.3683L20.654 14.7323C20.7773 14.6533 20.9207 14.6114 21.0672 14.6114C21.2137 14.6114 21.3571 14.6533 21.4804 14.7323L28.7339 19.3683V25.9363ZM3.16553 34.5169C2.78248 34.2957 2.4641 33.978 2.24213 33.5954C2.02017 33.2129 1.90239 32.7788 1.90053 32.3365V13.6635C1.90053 13.6467 1.90053 13.6298 1.90053 13.6129L11.8672 19.3821V26.5121C11.8684 26.9089 11.9717 27.2988 12.1672 27.6441C12.3627 27.9895 12.6438 28.2787 12.9835 28.484L20.3005 32.877V44.3379C20.1185 44.2854 19.9429 44.2128 19.7769 44.1217L3.16553 34.5169ZM40.2339 32.3365C40.232 32.7788 40.1142 33.2129 39.8923 33.5954C39.6703 33.978 39.3519 34.2957 38.9689 34.5169L22.3575 44.1209C22.1915 44.2121 22.0158 44.2846 21.8339 44.3371V32.877L29.1509 28.487C29.4906 28.2818 29.7717 27.9926 29.9672 27.6472C30.1627 27.3019 30.266 26.912 30.2672 26.5152V19.3852L40.2339 13.616C40.2339 13.6329 40.2339 13.6497 40.2339 13.6666V32.3365Z" fill="#68D1DF"/>
</svg>
