<svg width="43" height="46" viewBox="0 0 43 46" fill="none" xmlns="http://www.w3.org/2000/svg">
<path d="M40.3367 10.156L23.7253 0.551229C23.0993 0.190337 22.3894 0.000366211 21.6668 0.000366211C20.9442 0.000366211 20.2343 0.190337 19.6083 0.551229L2.99694 10.156C2.38151 10.5122 1.8702 11.0235 1.51399 11.639C1.15778 12.2544 0.969107 12.9525 0.966797 13.6635V32.3365C0.969107 33.0475 1.15778 33.7456 1.51399 34.361C1.8702 34.9765 2.38151 35.4878 2.99694 35.844L19.6083 45.4488C20.2343 45.8097 20.9442 45.9996 21.6668 45.9996C22.3894 45.9996 23.0993 45.8097 23.7253 45.4488L40.3367 35.844C40.9521 35.4878 41.4634 34.9765 41.8196 34.361C42.1758 33.7456 42.3645 33.0475 42.3668 32.3365V13.6635C42.3645 12.9525 42.1758 12.2544 41.8196 11.639C41.4634 11.0235 40.9521 10.5122 40.3367 10.156ZM3.76514 11.4831L20.3765 1.8791C20.769 1.65327 21.2139 1.53443 21.6668 1.53443C22.1196 1.53443 22.5646 1.65327 22.9571 1.8791L39.5685 11.4831C39.8579 11.6509 40.1114 11.8742 40.3144 12.1402L30.1132 18.0435L22.9065 13.4366C22.5365 13.2011 22.1069 13.076 21.6683 13.076C21.2297 13.076 20.8002 13.2011 20.4302 13.4366L13.2235 18.0435L3.02224 12.1402C3.22432 11.8745 3.47676 11.6512 3.76514 11.4831ZM21.6668 31.5483L14.6518 27.3401L21.2505 23.1173C21.3744 23.0374 21.5186 22.9949 21.666 22.9949C21.8134 22.9949 21.9577 23.0374 22.0816 23.1173L28.6818 27.3409L21.6668 31.5483ZM29.3335 25.9363L22.9065 21.8239C22.5353 21.5894 22.1051 21.4649 21.666 21.4649C21.2269 21.4649 20.7968 21.5894 20.4256 21.8239L14.0001 25.9363V19.3683L21.2536 14.7323C21.3769 14.6533 21.5203 14.6114 21.6668 14.6114C21.8133 14.6114 21.9567 14.6533 22.08 14.7323L29.3335 19.3683V25.9363ZM3.76514 34.5169C3.38209 34.2957 3.06371 33.978 2.84174 33.5954C2.61978 33.2129 2.502 32.7788 2.50014 32.3365V13.6635C2.50014 13.6467 2.50014 13.6298 2.50014 13.6129L12.4668 19.3821V26.5121C12.468 26.9089 12.5713 27.2988 12.7668 27.6441C12.9623 27.9895 13.2434 28.2787 13.5831 28.484L20.9001 32.877V44.3379C20.7181 44.2854 20.5425 44.2128 20.3765 44.1217L3.76514 34.5169ZM40.8335 32.3365C40.8316 32.7788 40.7138 33.2129 40.4919 33.5954C40.2699 33.978 39.9515 34.2957 39.5685 34.5169L22.9571 44.1209C22.7911 44.2121 22.6154 44.2846 22.4335 44.3371V32.877L29.7505 28.487C30.0902 28.2818 30.3713 27.9926 30.5668 27.6472C30.7623 27.3019 30.8656 26.912 30.8668 26.5152V19.3852L40.8335 13.616C40.8335 13.6329 40.8335 13.6497 40.8335 13.6666V32.3365Z" fill="#68D1DF"/>
</svg>
