<svg width="42" height="46" viewBox="0 0 42 46" fill="none" xmlns="http://www.w3.org/2000/svg">
<path d="M39.5379 10.156L22.9265 0.551229C22.3005 0.190337 21.5906 0.000366211 20.868 0.000366211C20.1454 0.000366211 19.4355 0.190337 18.8095 0.551229L2.19811 10.156C1.58268 10.5122 1.07137 11.0235 0.715159 11.639C0.358949 12.2544 0.170279 12.9525 0.167969 13.6635V32.3365C0.170279 33.0475 0.358949 33.7456 0.715159 34.361C1.07137 34.9765 1.58268 35.4878 2.19811 35.844L18.8095 45.4488C19.4355 45.8097 20.1454 45.9996 20.868 45.9996C21.5906 45.9996 22.3005 45.8097 22.9265 45.4488L39.5379 35.844C40.1533 35.4878 40.6646 34.9765 41.0208 34.361C41.377 33.7456 41.5657 33.0475 41.568 32.3365V13.6635C41.5657 12.9525 41.377 12.2544 41.0208 11.639C40.6646 11.0235 40.1533 10.5122 39.5379 10.156ZM2.96631 11.4831L19.5777 1.8791C19.9702 1.65327 20.4151 1.53443 20.868 1.53443C21.3208 1.53443 21.7658 1.65327 22.1583 1.8791L38.7697 11.4831C39.0591 11.6509 39.3126 11.8742 39.5156 12.1402L29.3144 18.0435L22.1077 13.4366C21.7377 13.2011 21.3081 13.076 20.8695 13.076C20.4309 13.076 20.0014 13.2011 19.6314 13.4366L12.4247 18.0435L2.22341 12.1402C2.42549 11.8745 2.67793 11.6512 2.96631 11.4831ZM20.868 31.5483L13.853 27.3401L20.4517 23.1173C20.5756 23.0374 20.7198 22.9949 20.8672 22.9949C21.0146 22.9949 21.1589 23.0374 21.2828 23.1173L27.883 27.3409L20.868 31.5483ZM28.5347 25.9363L22.1077 21.8239C21.7365 21.5894 21.3063 21.4649 20.8672 21.4649C20.4281 21.4649 19.998 21.5894 19.6268 21.8239L13.2013 25.9363V19.3683L20.4548 14.7323C20.5781 14.6533 20.7215 14.6114 20.868 14.6114C21.0145 14.6114 21.1579 14.6533 21.2812 14.7323L28.5347 19.3683V25.9363ZM2.96631 34.5169C2.58326 34.2957 2.26488 33.978 2.04291 33.5954C1.82095 33.2129 1.70317 32.7788 1.70131 32.3365V13.6635C1.70131 13.6467 1.70131 13.6298 1.70131 13.6129L11.668 19.3821V26.5121C11.6692 26.9089 11.7725 27.2988 11.968 27.6441C12.1635 27.9895 12.4446 28.2787 12.7843 28.484L20.1013 32.877V44.3379C19.9193 44.2854 19.7437 44.2128 19.5777 44.1217L2.96631 34.5169ZM40.0347 32.3365C40.0328 32.7788 39.915 33.2129 39.6931 33.5954C39.4711 33.978 39.1527 34.2957 38.7697 34.5169L22.1583 44.1209C21.9923 44.2121 21.8166 44.2846 21.6347 44.3371V32.877L28.9517 28.487C29.2914 28.2818 29.5725 27.9926 29.768 27.6472C29.9635 27.3019 30.0668 26.912 30.068 26.5152V19.3852L40.0347 13.616C40.0347 13.6329 40.0347 13.6497 40.0347 13.6666V32.3365Z" fill="#68D1DF"/>
</svg>
