<svg width="43" height="46" viewBox="0 0 43 46" fill="none" xmlns="http://www.w3.org/2000/svg">
<path d="M40.1375 10.156L23.5261 0.551229C22.9001 0.190337 22.1902 0.000366211 21.4676 0.000366211C20.745 0.000366211 20.0351 0.190337 19.4091 0.551229L2.79772 10.156C2.18229 10.5122 1.67098 11.0235 1.31477 11.639C0.958558 12.2544 0.769888 12.9525 0.767578 13.6635V32.3365C0.769888 33.0475 0.958558 33.7456 1.31477 34.361C1.67098 34.9765 2.18229 35.4878 2.79772 35.844L19.4091 45.4488C20.0351 45.8097 20.745 45.9996 21.4676 45.9996C22.1902 45.9996 22.9001 45.8097 23.5261 45.4488L40.1375 35.844C40.7529 35.4878 41.2642 34.9765 41.6204 34.361C41.9766 33.7456 42.1653 33.0475 42.1676 32.3365V13.6635C42.1653 12.9525 41.9766 12.2544 41.6204 11.639C41.2642 11.0235 40.7529 10.5122 40.1375 10.156ZM3.56592 11.4831L20.1773 1.8791C20.5698 1.65327 21.0147 1.53443 21.4676 1.53443C21.9204 1.53443 22.3654 1.65327 22.7579 1.8791L39.3693 11.4831C39.6587 11.6509 39.9122 11.8742 40.1152 12.1402L29.914 18.0435L22.7073 13.4366C22.3373 13.2011 21.9077 13.076 21.4691 13.076C21.0305 13.076 20.601 13.2011 20.231 13.4366L13.0243 18.0435L2.82302 12.1402C3.0251 11.8745 3.27754 11.6512 3.56592 11.4831ZM21.4676 31.5483L14.4526 27.3401L21.0513 23.1173C21.1752 23.0374 21.3194 22.9949 21.4668 22.9949C21.6142 22.9949 21.7585 23.0374 21.8824 23.1173L28.4826 27.3409L21.4676 31.5483ZM29.1343 25.9363L22.7073 21.8239C22.3361 21.5894 21.9059 21.4649 21.4668 21.4649C21.0277 21.4649 20.5976 21.5894 20.2264 21.8239L13.8009 25.9363V19.3683L21.0544 14.7323C21.1777 14.6533 21.3211 14.6114 21.4676 14.6114C21.6141 14.6114 21.7575 14.6533 21.8808 14.7323L29.1343 19.3683V25.9363ZM3.56592 34.5169C3.18287 34.2957 2.86449 33.978 2.64252 33.5954C2.42056 33.2129 2.30278 32.7788 2.30092 32.3365V13.6635C2.30092 13.6467 2.30092 13.6298 2.30092 13.6129L12.2676 19.3821V26.5121C12.2688 26.9089 12.3721 27.2988 12.5676 27.6441C12.7631 27.9895 13.0442 28.2787 13.3839 28.484L20.7009 32.877V44.3379C20.5189 44.2854 20.3433 44.2128 20.1773 44.1217L3.56592 34.5169ZM40.6343 32.3365C40.6324 32.7788 40.5146 33.2129 40.2927 33.5954C40.0707 33.978 39.7523 34.2957 39.3693 34.5169L22.7579 44.1209C22.5919 44.2121 22.4162 44.2846 22.2343 44.3371V32.877L29.5513 28.487C29.891 28.2818 30.1721 27.9926 30.3676 27.6472C30.5631 27.3019 30.6664 26.912 30.6676 26.5152V19.3852L40.6343 13.616C40.6343 13.6329 40.6343 13.6497 40.6343 13.6666V32.3365Z" fill="#68D1DF"/>
</svg>
