<svg width="42" height="46" viewBox="0 0 42 46" fill="none" xmlns="http://www.w3.org/2000/svg">
<path d="M39.9363 10.156L23.3249 0.551229C22.6989 0.190337 21.989 0.000366211 21.2664 0.000366211C20.5438 0.000366211 19.8339 0.190337 19.2079 0.551229L2.59655 10.156C1.98112 10.5122 1.46981 11.0235 1.1136 11.639C0.757386 12.2544 0.568716 12.9525 0.566406 13.6635V32.3365C0.568716 33.0475 0.757386 33.7456 1.1136 34.361C1.46981 34.9765 1.98112 35.4878 2.59655 35.844L19.2079 45.4488C19.8339 45.8097 20.5438 45.9996 21.2664 45.9996C21.989 45.9996 22.6989 45.8097 23.3249 45.4488L39.9363 35.844C40.5517 35.4878 41.063 34.9765 41.4192 34.361C41.7754 33.7456 41.9641 33.0475 41.9664 32.3365V13.6635C41.9641 12.9525 41.7754 12.2544 41.4192 11.639C41.063 11.0235 40.5517 10.5122 39.9363 10.156ZM3.36475 11.4831L19.9761 1.8791C20.3686 1.65327 20.8135 1.53443 21.2664 1.53443C21.7192 1.53443 22.1642 1.65327 22.5567 1.8791L39.1681 11.4831C39.4575 11.6509 39.711 11.8742 39.914 12.1402L29.7128 18.0435L22.5061 13.4366C22.1361 13.2011 21.7065 13.076 21.2679 13.076C20.8293 13.076 20.3998 13.2011 20.0298 13.4366L12.8231 18.0435L2.62185 12.1402C2.82393 11.8745 3.07637 11.6512 3.36475 11.4831ZM21.2664 31.5483L14.2514 27.3401L20.8501 23.1173C20.974 23.0374 21.1182 22.9949 21.2656 22.9949C21.413 22.9949 21.5573 23.0374 21.6812 23.1173L28.2814 27.3409L21.2664 31.5483ZM28.9331 25.9363L22.5061 21.8239C22.1349 21.5894 21.7047 21.4649 21.2656 21.4649C20.8265 21.4649 20.3964 21.5894 20.0252 21.8239L13.5997 25.9363V19.3683L20.8532 14.7323C20.9765 14.6533 21.1199 14.6114 21.2664 14.6114C21.4129 14.6114 21.5563 14.6533 21.6796 14.7323L28.9331 19.3683V25.9363ZM3.36475 34.5169C2.9817 34.2957 2.66332 33.978 2.44135 33.5954C2.21939 33.2129 2.10161 32.7788 2.09975 32.3365V13.6635C2.09975 13.6467 2.09975 13.6298 2.09975 13.6129L12.0664 19.3821V26.5121C12.0676 26.9089 12.1709 27.2988 12.3664 27.6441C12.5619 27.9895 12.843 28.2787 13.1827 28.484L20.4997 32.877V44.3379C20.3177 44.2854 20.1421 44.2128 19.9761 44.1217L3.36475 34.5169ZM40.4331 32.3365C40.4312 32.7788 40.3134 33.2129 40.0915 33.5954C39.8695 33.978 39.5511 34.2957 39.1681 34.5169L22.5567 44.1209C22.3907 44.2121 22.215 44.2846 22.0331 44.3371V32.877L29.3501 28.487C29.6898 28.2818 29.9709 27.9926 30.1664 27.6472C30.3619 27.3019 30.4652 26.912 30.4664 26.5152V19.3852L40.4331 13.616C40.4331 13.6329 40.4331 13.6497 40.4331 13.6666V32.3365Z" fill="#68D1DF"/>
</svg>
