<svg width="42" height="46" viewBox="0 0 42 46" fill="none" xmlns="http://www.w3.org/2000/svg">
<path d="M39.9534 10.156L23.342 0.551229C22.716 0.190337 22.0061 0.000366211 21.2835 0.000366211C20.5609 0.000366211 19.851 0.190337 19.225 0.551229L2.61364 10.156C1.99821 10.5122 1.4869 11.0235 1.13069 11.639C0.774476 12.2544 0.585806 12.9525 0.583496 13.6635V32.3365C0.585806 33.0475 0.774476 33.7456 1.13069 34.361C1.4869 34.9765 1.99821 35.4878 2.61364 35.844L19.225 45.4488C19.851 45.8097 20.5609 45.9996 21.2835 45.9996C22.0061 45.9996 22.716 45.8097 23.342 45.4488L39.9534 35.844C40.5688 35.4878 41.0801 34.9765 41.4363 34.361C41.7925 33.7456 41.9812 33.0475 41.9835 32.3365V13.6635C41.9812 12.9525 41.7925 12.2544 41.4363 11.639C41.0801 11.0235 40.5688 10.5122 39.9534 10.156ZM3.38184 11.4831L19.9932 1.8791C20.3857 1.65327 20.8306 1.53443 21.2835 1.53443C21.7363 1.53443 22.1813 1.65327 22.5738 1.8791L39.1852 11.4831C39.4746 11.6509 39.7281 11.8742 39.9311 12.1402L29.7299 18.0435L22.5232 13.4366C22.1532 13.2011 21.7236 13.076 21.285 13.076C20.8464 13.076 20.4169 13.2011 20.0469 13.4366L12.8402 18.0435L2.63894 12.1402C2.84102 11.8745 3.09346 11.6512 3.38184 11.4831ZM21.2835 31.5483L14.2685 27.3401L20.8672 23.1173C20.9911 23.0374 21.1353 22.9949 21.2827 22.9949C21.4301 22.9949 21.5744 23.0374 21.6983 23.1173L28.2985 27.3409L21.2835 31.5483ZM28.9502 25.9363L22.5232 21.8239C22.152 21.5894 21.7218 21.4649 21.2827 21.4649C20.8436 21.4649 20.4135 21.5894 20.0423 21.8239L13.6168 25.9363V19.3683L20.8703 14.7323C20.9936 14.6533 21.137 14.6114 21.2835 14.6114C21.43 14.6114 21.5734 14.6533 21.6967 14.7323L28.9502 19.3683V25.9363ZM3.38184 34.5169C2.99879 34.2957 2.68041 33.978 2.45844 33.5954C2.23648 33.2129 2.1187 32.7788 2.11684 32.3365V13.6635C2.11684 13.6467 2.11684 13.6298 2.11684 13.6129L12.0835 19.3821V26.5121C12.0847 26.9089 12.188 27.2988 12.3835 27.6441C12.579 27.9895 12.8601 28.2787 13.1998 28.484L20.5168 32.877V44.3379C20.3348 44.2854 20.1592 44.2128 19.9932 44.1217L3.38184 34.5169ZM40.4502 32.3365C40.4483 32.7788 40.3305 33.2129 40.1086 33.5954C39.8866 33.978 39.5682 34.2957 39.1852 34.5169L22.5738 44.1209C22.4078 44.2121 22.2321 44.2846 22.0502 44.3371V32.877L29.3672 28.487C29.7069 28.2818 29.988 27.9926 30.1835 27.6472C30.379 27.3019 30.4823 26.912 30.4835 26.5152V19.3852L40.4502 13.616C40.4502 13.6329 40.4502 13.6497 40.4502 13.6666V32.3365Z" fill="#68D1DF"/>
</svg>
