<svg width="42" height="46" viewBox="0 0 42 46" fill="none" xmlns="http://www.w3.org/2000/svg">
<path d="M39.9383 10.156L23.3269 0.551229C22.7009 0.190337 21.991 0.000366211 21.2684 0.000366211C20.5458 0.000366211 19.8359 0.190337 19.2099 0.551229L2.5985 10.156C1.98307 10.5122 1.47176 11.0235 1.11555 11.639C0.759339 12.2544 0.570669 12.9525 0.568359 13.6635V32.3365C0.570669 33.0475 0.759339 33.7456 1.11555 34.361C1.47176 34.9765 1.98307 35.4878 2.5985 35.844L19.2099 45.4488C19.8359 45.8097 20.5458 45.9996 21.2684 45.9996C21.991 45.9996 22.7009 45.8097 23.3269 45.4488L39.9383 35.844C40.5537 35.4878 41.065 34.9765 41.4212 34.361C41.7774 33.7456 41.9661 33.0475 41.9684 32.3365V13.6635C41.9661 12.9525 41.7774 12.2544 41.4212 11.639C41.065 11.0235 40.5537 10.5122 39.9383 10.156ZM3.3667 11.4831L19.9781 1.8791C20.3706 1.65327 20.8155 1.53443 21.2684 1.53443C21.7212 1.53443 22.1662 1.65327 22.5587 1.8791L39.1701 11.4831C39.4595 11.6509 39.713 11.8742 39.916 12.1402L29.7148 18.0435L22.5081 13.4366C22.1381 13.2011 21.7085 13.076 21.2699 13.076C20.8313 13.076 20.4018 13.2011 20.0318 13.4366L12.8251 18.0435L2.6238 12.1402C2.82588 11.8745 3.07832 11.6512 3.3667 11.4831ZM21.2684 31.5483L14.2534 27.3401L20.8521 23.1173C20.976 23.0374 21.1202 22.9949 21.2676 22.9949C21.415 22.9949 21.5593 23.0374 21.6832 23.1173L28.2834 27.3409L21.2684 31.5483ZM28.9351 25.9363L22.5081 21.8239C22.1369 21.5894 21.7067 21.4649 21.2676 21.4649C20.8285 21.4649 20.3984 21.5894 20.0272 21.8239L13.6017 25.9363V19.3683L20.8552 14.7323C20.9785 14.6533 21.1219 14.6114 21.2684 14.6114C21.4149 14.6114 21.5583 14.6533 21.6816 14.7323L28.9351 19.3683V25.9363ZM3.3667 34.5169C2.98365 34.2957 2.66527 33.978 2.4433 33.5954C2.22134 33.2129 2.10356 32.7788 2.1017 32.3365V13.6635C2.1017 13.6467 2.1017 13.6298 2.1017 13.6129L12.0684 19.3821V26.5121C12.0696 26.9089 12.1729 27.2988 12.3684 27.6441C12.5639 27.9895 12.845 28.2787 13.1847 28.484L20.5017 32.877V44.3379C20.3197 44.2854 20.1441 44.2128 19.9781 44.1217L3.3667 34.5169ZM40.4351 32.3365C40.4332 32.7788 40.3154 33.2129 40.0935 33.5954C39.8715 33.978 39.5531 34.2957 39.1701 34.5169L22.5587 44.1209C22.3927 44.2121 22.217 44.2846 22.0351 44.3371V32.877L29.3521 28.487C29.6918 28.2818 29.9729 27.9926 30.1684 27.6472C30.3639 27.3019 30.4672 26.912 30.4684 26.5152V19.3852L40.4351 13.616C40.4351 13.6329 40.4351 13.6497 40.4351 13.6666V32.3365Z" fill="#68D1DF"/>
</svg>
