<svg width="80" height="81" viewBox="0 0 80 81" fill="none" xmlns="http://www.w3.org/2000/svg">
<g opacity="0.8">
<path d="M60.7992 9.63574H19.1992C18.2402 9.66208 17.3008 9.91373 16.457 10.3704C15.6132 10.827 14.8887 11.4758 14.3422 12.2643L3.94214 26.6643C3.16988 27.7556 2.78422 29.0735 2.84633 30.409C2.90845 31.7444 3.41478 33.0208 4.28499 34.0358L35.485 69.9786C36.0191 70.6668 36.7036 71.2239 37.486 71.607C38.2684 71.9902 39.128 72.1894 39.9992 72.1894C40.8704 72.1894 41.7302 71.9902 42.5126 71.607C43.295 71.2239 43.9795 70.6668 44.5136 69.9786L75.7136 34.0358C76.5838 33.0208 77.0902 31.7444 77.1522 30.409C77.2143 29.0735 76.8287 27.7556 76.0564 26.6643L65.6564 12.2643C65.1098 11.4758 64.3854 10.827 63.5415 10.3704C62.6978 9.91373 61.7583 9.66208 60.7992 9.63574Z" stroke="#68D1DF" stroke-width="1.5" stroke-linecap="round" stroke-linejoin="round"/>
<path d="M37.0289 9.57861L23.0859 31.1786L40.0002 72.0358" stroke="#68D1DF" stroke-width="1.5" stroke-linecap="round" stroke-linejoin="round"/>
<path d="M43.1428 9.57861L57.0285 31.1786L40 72.0358" stroke="#68D1DF" stroke-width="1.5" stroke-linecap="round" stroke-linejoin="round"/>
<path d="M2.9707 31.1787H77.0279" stroke="#68D1DF" stroke-width="1.5" stroke-linecap="round" stroke-linejoin="round"/>
</g>
</svg>
