<svg width="21" height="21" viewBox="0 0 21 21" fill="none" xmlns="http://www.w3.org/2000/svg">
<path d="M10.222 20.9188C10.222 20.9188 17.8893 13.6528 17.8893 8.13996C17.8893 6.10647 17.0815 4.15626 15.6436 2.71836C14.2057 1.28046 12.2555 0.472656 10.222 0.472656C8.1885 0.472656 6.23829 1.28046 4.80039 2.71836C3.36249 4.15626 2.55469 6.10647 2.55469 8.13996C2.55469 13.6528 10.222 20.9188 10.222 20.9188ZM10.222 11.9736C9.20525 11.9736 8.23014 11.5697 7.51119 10.8508C6.79224 10.1318 6.38834 9.15671 6.38834 8.13996C6.38834 7.12322 6.79224 6.14811 7.51119 5.42916C8.23014 4.71021 9.20525 4.30631 10.222 4.30631C11.2387 4.30631 12.2138 4.71021 12.9328 5.42916C13.6517 6.14811 14.0556 7.12322 14.0556 8.13996C14.0556 9.15671 13.6517 10.1318 12.9328 10.8508C12.2138 11.5697 11.2387 11.9736 10.222 11.9736Z" fill="white"/>
</svg>
