<svg width="60" height="60" viewBox="0 0 60 60" fill="none" xmlns="http://www.w3.org/2000/svg">
<rect width="60" height="60" rx="30" fill="#68D1DF" fill-opacity="0.2"/>
<path d="M25.3195 20.5H33.7195C36.6434 20.5 39.0195 22.8761 39.0195 25.8V34.2C39.0195 35.6056 38.4611 36.9537 37.4672 37.9477C36.4733 38.9416 35.1252 39.5 33.7195 39.5H25.3195C22.3957 39.5 20.0195 37.1239 20.0195 34.2V25.8C20.0195 24.3944 20.5779 23.0463 21.5719 22.0523C22.5658 21.0584 23.9139 20.5 25.3195 20.5ZM25.1195 21.5C24.0321 21.5 22.9893 21.932 22.2204 22.7009C21.4515 23.4698 21.0195 24.5126 21.0195 25.6V34.4C21.0195 36.6661 22.8534 38.5 25.1195 38.5H33.9195C35.0069 38.5 36.0498 38.068 36.8187 37.2991C37.5876 36.5302 38.0195 35.4874 38.0195 34.4V25.6C38.0195 23.3339 36.1857 21.5 33.9195 21.5H25.1195ZM34.7695 24C34.9684 24 35.1592 24.079 35.2999 24.2197C35.4405 24.3603 35.5195 24.5511 35.5195 24.75C35.5195 24.9489 35.4405 25.1397 35.2999 25.2803C35.1592 25.421 34.9684 25.5 34.7695 25.5C34.5706 25.5 34.3799 25.421 34.2392 25.2803C34.0985 25.1397 34.0195 24.9489 34.0195 24.75C34.0195 24.5511 34.0985 24.3603 34.2392 24.2197C34.3799 24.079 34.5706 24 34.7695 24ZM29.5195 25.5C30.713 25.5 31.8576 25.9741 32.7015 26.818C33.5454 27.6619 34.0195 28.8065 34.0195 30C34.0195 31.1935 33.5454 32.3381 32.7015 33.182C31.8576 34.0259 30.713 34.5 29.5195 34.5C28.3261 34.5 27.1815 34.0259 26.3376 33.182C25.4936 32.3381 25.0195 31.1935 25.0195 30C25.0195 28.8065 25.4936 27.6619 26.3376 26.818C27.1815 25.9741 28.3261 25.5 29.5195 25.5ZM29.5195 26.5C28.5913 26.5 27.701 26.8687 27.0447 27.5251C26.3883 28.1815 26.0195 29.0717 26.0195 30C26.0195 30.9283 26.3883 31.8185 27.0447 32.4749C27.701 33.1313 28.5913 33.5 29.5195 33.5C30.4478 33.5 31.338 33.1313 31.9944 32.4749C32.6508 31.8185 33.0195 30.9283 33.0195 30C33.0195 29.0717 32.6508 28.1815 31.9944 27.5251C31.338 26.8687 30.4478 26.5 29.5195 26.5Z" fill="#68D1DF" stroke="#68D1DF"/>
</svg>
