<svg width="17" height="17" viewBox="0 0 17 17" fill="none" xmlns="http://www.w3.org/2000/svg">
<mask id="mask0_60_393" style="mask-type:alpha" maskUnits="userSpaceOnUse" x="0" y="0" width="17" height="17">
<g clip-path="url(#clip0_60_393)">
<g clip-path="url(#clip1_60_393)">
<path d="M15.138 10.3603L10.3713 8.49746L15.1794 6.63461C15.4281 6.55182 15.5939 6.26204 15.5525 6.01366C15.4696 5.4755 15.2209 4.97874 14.9307 4.52338C14.682 4.02662 14.3504 3.61265 13.936 3.24008C13.7287 3.0745 13.4386 3.0745 13.2313 3.24008L9.21072 6.46902L10.0397 1.37724C10.1226 1.08746 9.95681 0.83908 9.70811 0.756287C9.21072 0.549304 8.63043 0.466511 8.09158 0.507908C7.55274 0.466511 6.97245 0.549304 6.47506 0.756287C6.22636 0.83908 6.06057 1.12886 6.14347 1.37724L6.97245 6.46902L2.95186 3.24008C2.74461 3.0331 2.45447 3.0331 2.24722 3.24008C1.83273 3.57126 1.50113 4.02662 1.25244 4.52338C0.920841 4.97874 0.713593 5.4755 0.589245 6.01366C0.547796 6.30344 0.713594 6.55182 0.96229 6.63461L5.68752 8.49746L0.879391 10.3603C0.630695 10.4431 0.464898 10.7329 0.506348 10.9813C0.589247 11.5194 0.796494 12.0162 1.12809 12.4715C1.37679 12.9683 1.70838 13.3823 2.12287 13.7548C2.33012 13.9204 2.62027 13.9204 2.82751 13.7548L6.8481 10.5259L6.01912 15.6177C5.93622 15.9075 6.10202 16.1558 6.35071 16.28C6.88955 16.4456 7.4284 16.5284 7.96724 16.487C8.50608 16.5284 9.08637 16.4456 9.58377 16.28C9.83246 16.1972 9.99826 15.9075 9.91536 15.6177L9.08637 10.5259L13.107 13.7548C13.3142 13.9204 13.6044 13.9204 13.8531 13.7548C14.2675 13.4237 14.5991 13.0097 14.8478 12.5129C15.1794 12.0576 15.3867 11.5608 15.511 11.0227C15.5525 10.6915 15.4281 10.4431 15.138 10.3603Z" fill="#BFF747"/>
</g>
</g>
</mask>
<g mask="url(#mask0_60_393)">
<rect x="0.5" y="0.5" width="16" height="16" fill="#68D1DF"/>
</g>
<defs>
<clipPath id="clip0_60_393">
<rect width="16" height="16" fill="white" transform="translate(0.5 0.5)"/>
</clipPath>
<clipPath id="clip1_60_393">
<rect width="16" height="16" fill="white" transform="translate(0.5 0.5)"/>
</clipPath>
</defs>
</svg>
